<svg width="128" height="96" viewBox="0 0 128 96" fill="none" xmlns="http://www.w3.org/2000/svg">
<rect width="128" height="96" rx="32" fill="#FF4C4C" fill-opacity="0.71"/>
<path d="M78 48C77.9992 48.3439 77.9104 48.6818 77.7419 48.9816C77.5734 49.2814 77.3309 49.533 77.0375 49.7125L59.0375 60.7C58.7377 60.89 58.3914 60.9939 58.0365 61.0006C57.6816 61.0072 57.3317 60.9162 57.025 60.7375C56.7138 60.5667 56.4543 60.3152 56.2739 60.0095C56.0935 59.7037 55.9989 59.355 56 59V37C55.9989 36.645 56.0935 36.2962 56.2739 35.9905C56.4543 35.6847 56.7138 35.4332 57.025 35.2625C57.3317 35.0838 57.6816 34.9927 58.0365 34.9994C58.3914 35.006 58.7377 35.11 59.0375 35.3L77.0375 46.2875C77.3309 46.4669 77.5734 46.7185 77.7419 47.0183C77.9104 47.3181 77.9992 47.6561 78 48Z" fill="#471515"/>
</svg>
