<svg width="67" height="67" viewBox="0 0 67 67" fill="none" xmlns="http://www.w3.org/2000/svg">
<rect x="0.911438" y="0.682266" width="65.9114" height="65.9114" rx="19.7734" fill="#4DDA6E" fill-opacity="0.15"/>
<path d="M46.7611 33.638C46.7623 33.9142 46.6941 34.1862 46.5627 34.4292C46.4314 34.6721 46.2411 34.8781 46.0093 35.0283L36.8229 40.9294C36.5736 41.091 36.2852 41.1821 35.9884 41.1932C35.6916 41.2043 35.3972 41.1349 35.1366 40.9925C34.8759 40.85 34.6586 40.6397 34.5077 40.3839C34.3567 40.128 34.2777 39.8362 34.2791 39.5391V35.1519L25.2884 40.9294C25.0391 41.091 24.7507 41.1821 24.4539 41.1932C24.1571 41.2043 23.8627 41.1349 23.6021 40.9925C23.3414 40.85 23.1241 40.6397 22.9732 40.3839C22.8222 40.128 22.7432 39.8362 22.7446 39.5391V27.7369C22.7432 27.4398 22.8222 27.1479 22.9732 26.8921C23.1241 26.6362 23.3414 26.426 23.6021 26.2835C23.8627 26.141 24.1571 26.0717 24.4539 26.0828C24.7507 26.0939 25.0391 26.185 25.2884 26.3465L34.2791 32.1241V27.7369C34.2777 27.4398 34.3567 27.1479 34.5077 26.8921C34.6586 26.6362 34.8759 26.426 35.1366 26.2835C35.3972 26.141 35.6916 26.0717 35.9884 26.0828C36.2852 26.0939 36.5736 26.185 36.8229 26.3465L46.0093 32.2477C46.2411 32.3978 46.4314 32.6039 46.5627 32.8468C46.6941 33.0897 46.7623 33.3618 46.7611 33.638Z" fill="#14401D"/>
</svg>
