<svg width="106" height="80" viewBox="0 0 106 80" fill="none" xmlns="http://www.w3.org/2000/svg">
<rect x="0.270844" y="0.0911255" width="105.458" height="79.0937" rx="26.3646" fill="#4DDA6E" fill-opacity="0.62"/>
<path d="M62.0628 31.3991V47.8769C62.0628 48.3139 61.8892 48.7331 61.5802 49.0421C61.2712 49.3511 60.852 49.5247 60.415 49.5247H56.7075C56.2705 49.5247 55.8514 49.3511 55.5423 49.0421C55.2333 48.7331 55.0597 48.3139 55.0597 47.8769V31.3991C55.0597 30.962 55.2333 30.5429 55.5423 30.2339C55.8514 29.9249 56.2705 29.7513 56.7075 29.7513H60.415C60.852 29.7513 61.2712 29.9249 61.5802 30.2339C61.8892 30.5429 62.0628 30.962 62.0628 31.3991ZM49.2925 29.7513H45.5849C45.1479 29.7513 44.7288 29.9249 44.4198 30.2339C44.1108 30.5429 43.9372 30.962 43.9372 31.3991V47.8769C43.9372 48.3139 44.1108 48.7331 44.4198 49.0421C44.7288 49.3511 45.1479 49.5247 45.5849 49.5247H49.2925C49.7295 49.5247 50.1486 49.3511 50.4576 49.0421C50.7666 48.7331 50.9403 48.3139 50.9403 47.8769V31.3991C50.9403 30.962 50.7666 30.5429 50.4576 30.2339C50.1486 29.9249 49.7295 29.7513 49.2925 29.7513V29.7513Z" fill="#14401D"/>
</svg>
