<svg width="67" height="67" viewBox="0 0 67 67" fill="none" xmlns="http://www.w3.org/2000/svg">
<rect x="0.677124" y="0.682266" width="65.9114" height="65.9114" rx="19.7734" fill="#4CACFF" fill-opacity="0.15"/>
<path d="M36.5165 33.638C36.5165 34.2083 36.3473 34.7658 36.0305 35.24C35.7136 35.7143 35.2633 36.0839 34.7364 36.3021C34.2094 36.5204 33.6296 36.5775 33.0703 36.4662C32.5109 36.3549 31.9971 36.0803 31.5938 35.677C31.1905 35.2737 30.9159 34.7599 30.8046 34.2006C30.6934 33.6412 30.7505 33.0614 30.9687 32.5345C31.187 32.0076 31.5566 31.5572 32.0308 31.2403C32.505 30.9235 33.0625 30.7544 33.6328 30.7544C34.3968 30.7571 35.1287 31.0618 35.6689 31.602C36.2091 32.1422 36.5138 32.874 36.5165 33.638V33.638ZM25.3939 30.7544C24.8236 30.7544 24.2661 30.9235 23.7919 31.2403C23.3176 31.5572 22.948 32.0076 22.7298 32.5345C22.5115 33.0614 22.4544 33.6412 22.5657 34.2006C22.677 34.7599 22.9516 35.2737 23.3549 35.677C23.7582 36.0803 24.272 36.3549 24.8313 36.4662C25.3907 36.5775 25.9705 36.5204 26.4974 36.3021C27.0243 36.0839 27.4747 35.7143 27.7916 35.24C28.1084 34.7658 28.2775 34.2083 28.2775 33.638C28.2748 32.874 27.9701 32.1422 27.4299 31.602C26.8897 31.0618 26.1579 30.7571 25.3939 30.7544V30.7544ZM41.8718 30.7544C41.3014 30.7544 40.7439 30.9235 40.2697 31.2403C39.7955 31.5572 39.4259 32.0076 39.2076 32.5345C38.9894 33.0614 38.9323 33.6412 39.0436 34.2006C39.1548 34.7599 39.4295 35.2737 39.8327 35.677C40.236 36.0803 40.7498 36.3549 41.3092 36.4662C41.8686 36.5775 42.4484 36.5204 42.9753 36.3021C43.5022 36.0839 43.9526 35.7143 44.2694 35.24C44.5863 34.7658 44.7554 34.2083 44.7554 33.638C44.7527 32.874 44.448 32.1422 43.9078 31.602C43.3676 31.0618 42.6357 30.7571 41.8718 30.7544Z" fill="#153047"/>
</svg>
