<svg width="113" height="41" viewBox="0 0 113 41" fill="none" xmlns="http://www.w3.org/2000/svg">
<rect x="1.16374" y="1.63902" width="110.673" height="37.8991" rx="18.9495" fill="#FF4C4C" fill-opacity="0.15"/>
<g clip-path="url(#clip0_102_1888)">
<path d="M39.0628 21.0005C39.0629 19.9091 38.7532 18.84 38.1699 17.9176C37.5865 16.9951 36.7534 16.2571 35.7672 15.7894V14.8213C35.7665 13.7597 35.424 12.7264 34.7904 11.8746C34.1568 11.0227 33.2658 10.3974 32.2493 10.0913C31.2327 9.78519 30.1446 9.81447 29.146 10.1748C28.1474 10.5352 27.2913 11.2075 26.7044 12.0922C26.1176 11.2075 25.2615 10.5352 24.2629 10.1748C23.2642 9.81447 22.1761 9.78519 21.1596 10.0913C20.143 10.3974 19.252 11.0227 18.6184 11.8746C17.9848 12.7264 17.6423 13.7597 17.6416 14.8213V15.7894C16.6553 16.257 15.822 16.995 15.2385 17.9174C14.655 18.8399 14.3452 19.909 14.3452 21.0005C14.3452 22.092 14.655 23.1611 15.2385 24.0836C15.822 25.0061 16.6553 25.744 17.6416 26.2116V26.3558C17.6423 27.4175 17.9848 28.4507 18.6184 29.3026C19.252 30.1544 20.143 30.7797 21.1596 31.0858C22.1761 31.3919 23.2642 31.3627 24.2629 31.0023C25.2615 30.6419 26.1176 29.9697 26.7044 29.085C27.2913 29.9697 28.1474 30.6419 29.146 31.0023C30.1446 31.3627 31.2327 31.3919 32.2493 31.0858C33.2658 30.7797 34.1568 30.1544 34.7904 29.3026C35.424 28.4507 35.7665 27.4175 35.7672 26.3558V26.2116C36.7526 25.7429 37.5851 25.0047 38.1683 24.0824C38.7515 23.1602 39.0617 22.0917 39.0628 21.0005V21.0005ZM22.585 29.6514C21.7719 29.6509 20.9877 29.3499 20.3831 28.8062C19.7786 28.2624 19.3964 27.5144 19.31 26.706C19.5757 26.7478 19.8443 26.7685 20.1133 26.7678H20.9372C21.1557 26.7678 21.3652 26.681 21.5197 26.5264C21.6743 26.3719 21.7611 26.1624 21.7611 25.9439C21.7611 25.7254 21.6743 25.5158 21.5197 25.3613C21.3652 25.2068 21.1557 25.12 20.9372 25.12H20.1133C19.1424 25.1183 18.2034 24.7738 17.4618 24.1473C16.7202 23.5208 16.2237 22.6525 16.0599 21.6955C15.8961 20.7386 16.0755 19.7546 16.5665 18.9171C17.0575 18.0796 17.8285 17.4424 18.7435 17.1179C18.9037 17.0589 19.0418 16.9523 19.1394 16.8123C19.237 16.6724 19.2894 16.5058 19.2894 16.3352V14.8213C19.2894 13.9473 19.6366 13.109 20.2546 12.491C20.8727 11.8729 21.7109 11.5257 22.585 11.5257C23.459 11.5257 24.2972 11.8729 24.9153 12.491C25.5333 13.109 25.8805 13.9473 25.8805 14.8213V22.6792C24.9785 21.8606 23.803 21.4087 22.585 21.4125C22.3664 21.4125 22.1569 21.4993 22.0024 21.6538C21.8479 21.8083 21.7611 22.0178 21.7611 22.2363C21.7611 22.4549 21.8479 22.6644 22.0024 22.8189C22.1569 22.9734 22.3664 23.0602 22.585 23.0602C23.459 23.0602 24.2972 23.4075 24.9153 24.0255C25.5333 24.6435 25.8805 25.4818 25.8805 26.3558C25.8805 27.2299 25.5333 28.0681 24.9153 28.6861C24.2972 29.3042 23.459 29.6514 22.585 29.6514ZM33.2956 25.12H32.4717C32.2532 25.12 32.0436 25.2068 31.8891 25.3613C31.7346 25.5158 31.6478 25.7254 31.6478 25.9439C31.6478 26.1624 31.7346 26.3719 31.8891 26.5264C32.0436 26.681 32.2532 26.7678 32.4717 26.7678H33.2956C33.5645 26.7685 33.8332 26.7478 34.0989 26.706C34.0312 27.3393 33.7814 27.9395 33.3798 28.4338C32.9781 28.9282 32.4419 29.2956 31.8358 29.4916C31.2297 29.6875 30.5799 29.7036 29.9648 29.538C29.3498 29.3723 28.796 29.032 28.3703 28.5581C27.9446 28.0843 27.6654 27.4973 27.5664 26.868C27.4674 26.2388 27.5529 25.5944 27.8125 25.0127C28.072 24.4311 28.4946 23.9371 29.0291 23.5906C29.5635 23.2441 30.1869 23.0599 30.8239 23.0602C31.0424 23.0602 31.252 22.9734 31.4065 22.8189C31.561 22.6644 31.6478 22.4549 31.6478 22.2363C31.6478 22.0178 31.561 21.8083 31.4065 21.6538C31.252 21.4993 31.0424 21.4125 30.8239 21.4125C29.6058 21.4087 28.4303 21.8606 27.5283 22.6792V14.8213C27.5283 13.9473 27.8755 13.109 28.4936 12.491C29.1116 11.8729 29.9498 11.5257 30.8239 11.5257C31.6979 11.5257 32.5362 11.8729 33.1542 12.491C33.7722 13.109 34.1195 13.9473 34.1195 14.8213V16.3352C34.1195 16.5058 34.1718 16.6724 34.2694 16.8123C34.367 16.9523 34.5052 17.0589 34.6653 17.1179C35.5803 17.4424 36.3513 18.0796 36.8423 18.9171C37.3333 19.7546 37.5128 20.7386 37.349 21.6955C37.1852 22.6525 36.6887 23.5208 35.9471 24.1473C35.2055 24.7738 34.2664 25.1183 33.2956 25.12V25.12ZM19.7013 20.5886C19.4828 20.5886 19.2733 20.5018 19.1187 20.3472C18.9642 20.1927 18.8774 19.9832 18.8774 19.7647C18.8774 19.5462 18.9642 19.3366 19.1187 19.1821C19.2733 19.0276 19.4828 18.9408 19.7013 18.9408C20.2468 18.9381 20.7691 18.7202 21.1548 18.3345C21.5405 17.9488 21.7584 17.4265 21.7611 16.881V16.0571C21.7611 15.8386 21.8479 15.6291 22.0024 15.4746C22.1569 15.3201 22.3664 15.2333 22.585 15.2333C22.8035 15.2333 23.013 15.3201 23.1675 15.4746C23.322 15.6291 23.4088 15.8386 23.4088 16.0571V16.881C23.4088 17.8643 23.0182 18.8074 22.3229 19.5027C21.6276 20.1979 20.6846 20.5886 19.7013 20.5886V20.5886ZM34.5314 19.7647C34.5314 19.9832 34.4446 20.1927 34.2901 20.3472C34.1356 20.5018 33.926 20.5886 33.7075 20.5886C32.7242 20.5886 31.7812 20.1979 31.0859 19.5027C30.3906 18.8074 30 17.8643 30 16.881V16.0571C30 15.8386 30.0868 15.6291 30.2413 15.4746C30.3958 15.3201 30.6054 15.2333 30.8239 15.2333C31.0424 15.2333 31.252 15.3201 31.4065 15.4746C31.561 15.6291 31.6478 15.8386 31.6478 16.0571V16.881C31.6505 17.4265 31.8684 17.9488 32.254 18.3345C32.6397 18.7202 33.1621 18.9381 33.7075 18.9408C33.926 18.9408 34.1356 19.0276 34.2901 19.1821C34.4446 19.3366 34.5314 19.5462 34.5314 19.7647Z" fill="#471515"/>
</g>
<path d="M48.0969 27.0885V13.0309H56.7575V14.7688H50.2693V19.297H55.8788V21.0156H50.2693V27.0885H48.0969ZM57.7712 22.2417V21.9328C57.7712 20.4073 58.2154 19.1747 59.1036 18.2349C59.9919 17.2887 61.1666 16.8156 62.6277 16.8156C64.0952 16.8156 65.2732 17.2887 66.1614 18.2349C67.0497 19.1747 67.4938 20.4073 67.4938 21.9328V22.2417C67.4938 23.7737 67.0497 25.0127 66.1614 25.9589C65.2732 26.8987 64.0952 27.3685 62.6277 27.3685C61.1666 27.3685 59.9919 26.8987 59.1036 25.9589C58.2154 25.0127 57.7712 23.7737 57.7712 22.2417ZM59.9243 21.8845V22.29C59.9243 23.2941 60.1528 24.1148 60.6098 24.752C61.0668 25.3828 61.7394 25.6982 62.6277 25.6982C63.5159 25.6982 64.1886 25.3828 64.6456 24.752C65.1026 24.1148 65.3311 23.2941 65.3311 22.29V21.8845C65.3311 20.8868 65.0994 20.0694 64.6359 19.4321C64.1789 18.7949 63.5095 18.4763 62.6277 18.4763C61.7459 18.4763 61.0732 18.7949 60.6098 19.4321C60.1528 20.0694 59.9243 20.8868 59.9243 21.8845ZM68.9903 22.2417V21.9328C68.9903 20.3944 69.4184 19.1586 70.2744 18.2253C71.1305 17.2855 72.2891 16.8156 73.7502 16.8156C75.1277 16.8156 76.1736 17.1729 76.8881 17.8873C77.6026 18.6018 77.9695 19.4321 77.9888 20.3783V20.4845H75.9419V20.3976C75.9419 19.8634 75.7649 19.4096 75.4109 19.0363C75.0569 18.6565 74.5033 18.4666 73.7502 18.4666C72.8749 18.4666 72.2215 18.7885 71.7903 19.4321C71.359 20.0694 71.1434 20.8868 71.1434 21.8845V22.29C71.1434 23.2813 71.3558 24.1019 71.7806 24.752C72.2054 25.3957 72.862 25.7175 73.7502 25.7175C74.5162 25.7175 75.073 25.5244 75.4206 25.1382C75.7681 24.752 75.9451 24.2983 75.9516 23.7769V23.6996H77.9888V23.7769C77.9888 24.7231 77.6251 25.5598 76.8978 26.2872C76.1769 27.0081 75.1277 27.3685 73.7502 27.3685C72.2891 27.3685 71.1305 26.8987 70.2744 25.9589C69.4184 25.0192 68.9903 23.7801 68.9903 22.2417ZM79.8039 23.4583V17.0956H81.9184V23.4776C81.9184 24.25 82.0825 24.7939 82.4108 25.1093C82.7455 25.4247 83.2154 25.5824 83.8204 25.5824C84.3418 25.5824 84.802 25.4375 85.2011 25.1479C85.6066 24.8582 85.9188 24.4881 86.1376 24.0376V17.0956H88.2424V27.0885H86.2921L86.2245 25.8334H86.1762C85.8351 26.284 85.4038 26.638 84.8825 26.8954C84.3611 27.1529 83.7786 27.2816 83.1349 27.2816C82.1372 27.2816 81.3326 26.9888 80.7212 26.403C80.1097 25.8173 79.8039 24.8357 79.8039 23.4583ZM90.2892 24.0569L92.3651 24.0665V24.1631C92.3651 24.7166 92.5582 25.1254 92.9444 25.3893C93.337 25.6532 93.8584 25.7851 94.5085 25.7851C95.1586 25.7851 95.6639 25.6596 96.0243 25.4086C96.3912 25.1575 96.5747 24.8196 96.5747 24.3948C96.5747 23.9764 96.4137 23.661 96.0919 23.4486C95.7701 23.2362 95.0749 23.0077 94.0064 22.7631C92.8929 22.5056 92.0368 22.142 91.4382 21.6721C90.846 21.2022 90.5499 20.5586 90.5499 19.7411C90.5499 18.8721 90.904 18.1673 91.612 17.6267C92.32 17.086 93.2694 16.8156 94.4602 16.8156C95.651 16.8156 96.6068 17.0892 97.3277 17.6363C98.0486 18.1834 98.4091 18.9333 98.4091 19.8859V19.9728H96.3429V19.8473C96.3429 19.3903 96.1885 19.0363 95.8795 18.7853C95.5705 18.5278 95.0942 18.3991 94.4506 18.3991C93.8198 18.3991 93.3563 18.5117 93.0602 18.737C92.7641 18.9623 92.6161 19.2551 92.6161 19.6156C92.6161 19.976 92.7899 20.2592 93.1375 20.4652C93.4851 20.6712 94.1931 20.8965 95.2616 21.1411C96.3751 21.3921 97.2183 21.7558 97.7912 22.2321C98.364 22.7084 98.6505 23.381 98.6505 24.25C98.6505 25.1897 98.3029 25.946 97.6077 26.5189C96.9126 27.0853 95.8827 27.3685 94.5181 27.3685C93.1536 27.3685 92.1076 27.0821 91.3803 26.5092C90.6529 25.9299 90.2892 25.1415 90.2892 24.1438V24.0569Z" fill="#471515"/>
<rect x="1.16374" y="1.63902" width="110.673" height="37.8991" rx="18.9495" stroke="#471515" stroke-width="1.64779"/>
<defs>
<clipPath id="clip0_102_1888">
<rect width="26.3646" height="26.3646" fill="white" transform="translate(13.5221 7.40625)"/>
</clipPath>
</defs>
</svg>
