<svg width="250" height="48" viewBox="0 0 250 48" fill="none" xmlns="http://www.w3.org/2000/svg">
<g clip-path="url(#clip0_102_1713)">
<path d="M33.375 30.75H32.625V15.75C32.625 15.5511 32.546 15.3603 32.4053 15.2197C32.2647 15.079 32.0739 15 31.875 15H26.625C26.4261 15 26.2353 15.079 26.0947 15.2197C25.954 15.3603 25.875 15.5511 25.875 15.75V19.5H21.375C21.1761 19.5 20.9853 19.579 20.8447 19.7197C20.704 19.8603 20.625 20.0511 20.625 20.25V24H16.125C15.9261 24 15.7353 24.079 15.5947 24.2197C15.454 24.3603 15.375 24.5511 15.375 24.75V30.75H14.625C14.4261 30.75 14.2353 30.829 14.0947 30.9697C13.954 31.1103 13.875 31.3011 13.875 31.5C13.875 31.6989 13.954 31.8897 14.0947 32.0303C14.2353 32.171 14.4261 32.25 14.625 32.25H33.375C33.5739 32.25 33.7647 32.171 33.9053 32.0303C34.046 31.8897 34.125 31.6989 34.125 31.5C34.125 31.3011 34.046 31.1103 33.9053 30.9697C33.7647 30.829 33.5739 30.75 33.375 30.75ZM22.125 21H25.875V30.75H22.125V21ZM16.875 25.5H20.625V30.75H16.875V25.5Z" fill="#FFF2F2"/>
<path d="M44.7031 26.3906V26.2812H46.1719V26.3906C46.1719 27.0885 46.4036 27.612 46.8672 27.9609C47.3307 28.3047 47.9766 28.4766 48.8047 28.4766C49.638 28.4766 50.2734 28.2995 50.7109 27.9453C51.1536 27.5859 51.375 27.1172 51.375 26.5391C51.375 26.013 51.1615 25.5938 50.7344 25.2812C50.3125 24.9635 49.5078 24.6328 48.3203 24.2891C47.0964 23.9297 46.2266 23.5104 45.7109 23.0312C45.1953 22.5521 44.9375 21.8672 44.9375 20.9766C44.9375 20.0964 45.2708 19.362 45.9375 18.7734C46.6094 18.1849 47.5417 17.8906 48.7344 17.8906C49.9167 17.8906 50.8594 18.2005 51.5625 18.8203C52.2656 19.4349 52.6172 20.2214 52.6172 21.1797V21.2891H51.1484V21.1797C51.1484 20.5703 50.9453 20.0807 50.5391 19.7109C50.1328 19.3359 49.5312 19.1484 48.7344 19.1484C47.9323 19.1484 47.3411 19.3099 46.9609 19.6328C46.5807 19.9505 46.3906 20.3854 46.3906 20.9375C46.3906 21.4375 46.5859 21.8333 46.9766 22.125C47.3672 22.4115 48.1667 22.7292 49.375 23.0781C50.5833 23.4219 51.4609 23.8516 52.0078 24.3672C52.5599 24.8828 52.8359 25.6068 52.8359 26.5391C52.8359 27.4714 52.474 28.237 51.75 28.8359C51.026 29.4349 50.0443 29.7344 48.8047 29.7344C47.5651 29.7344 46.5703 29.4375 45.8203 28.8438C45.0755 28.2448 44.7031 27.4271 44.7031 26.3906ZM53.6187 22.4219V21.3281H58.2672V22.4219H53.6187ZM55.0797 27.4688V21.9844V21.7578V19.2656H56.5016V27.4688C56.5016 27.8438 56.5745 28.1094 56.7203 28.2656C56.8714 28.4219 57.1031 28.5 57.4156 28.5C57.5615 28.5 57.7021 28.487 57.8375 28.4609C57.9781 28.4297 58.1214 28.388 58.2672 28.3359V29.5C58.1318 29.5625 57.9573 29.6172 57.7437 29.6641C57.5302 29.7109 57.2932 29.7344 57.0328 29.7344C56.4391 29.7344 55.9651 29.5547 55.6109 29.1953C55.2568 28.8307 55.0797 28.2552 55.0797 27.4688ZM59.4953 27.0938C59.4953 26.2708 59.8208 25.6276 60.4719 25.1641C61.1281 24.7005 61.9641 24.4688 62.9797 24.4688H64.8391V23.8984C64.8391 23.4036 64.7115 23.0026 64.4563 22.6953C64.201 22.388 63.7609 22.2344 63.1359 22.2344C62.5109 22.2344 62.063 22.3646 61.7922 22.625C61.5266 22.8802 61.3938 23.1771 61.3938 23.5156V23.5625H59.9719V23.5156C59.9719 22.8698 60.2583 22.3073 60.8313 21.8281C61.4094 21.3438 62.1906 21.1016 63.175 21.1016C64.1542 21.1016 64.912 21.3359 65.4484 21.8047C65.9901 22.2682 66.2609 22.9661 66.2609 23.8984V27.625C66.2609 27.9635 66.287 28.2839 66.3391 28.5859C66.3911 28.8828 66.4641 29.1458 66.5578 29.375V29.5H65.1828C65.1099 29.3698 65.0422 29.2005 64.9797 28.9922C64.9224 28.7839 64.8859 28.5755 64.8703 28.3672C64.6776 28.7057 64.3651 29.0052 63.9328 29.2656C63.5057 29.526 62.9563 29.6562 62.2844 29.6562C61.5031 29.6562 60.8417 29.4375 60.3 29C59.7635 28.5573 59.4953 27.9219 59.4953 27.0938ZM60.9172 27.0234C60.9172 27.4922 61.0526 27.8594 61.3234 28.125C61.5943 28.3854 62.0161 28.5156 62.5891 28.5156C63.162 28.5156 63.6802 28.3177 64.1438 27.9219C64.6073 27.526 64.8391 27.1068 64.8391 26.6641V25.4922H63.1359C62.4068 25.4922 61.8547 25.6302 61.4797 25.9062C61.1047 26.1823 60.9172 26.5547 60.9172 27.0234ZM67.5125 22.4219V21.3281H72.1609V22.4219H67.5125ZM68.9734 27.4688V21.9844V21.7578V19.2656H70.3953V27.4688C70.3953 27.8438 70.4682 28.1094 70.6141 28.2656C70.7651 28.4219 70.9969 28.5 71.3094 28.5C71.4552 28.5 71.5958 28.487 71.7313 28.4609C71.8719 28.4297 72.0151 28.388 72.1609 28.3359V29.5C72.0255 29.5625 71.851 29.6172 71.6375 29.6641C71.424 29.7109 71.187 29.7344 70.9266 29.7344C70.3328 29.7344 69.8589 29.5547 69.5047 29.1953C69.1505 28.8307 68.9734 28.2552 68.9734 27.4688ZM73.9125 29.5V21.3281H75.3344V29.5H73.9125ZM73.7328 18.8359C73.7328 18.5911 73.8083 18.388 73.9594 18.2266C74.1156 18.0599 74.337 17.9766 74.6234 17.9766C74.9099 17.9766 75.1286 18.0599 75.2797 18.2266C75.4359 18.388 75.5141 18.5911 75.5141 18.8359C75.5141 19.0755 75.4359 19.2786 75.2797 19.4453C75.1286 19.6068 74.9099 19.6875 74.6234 19.6875C74.337 19.6875 74.1156 19.6068 73.9594 19.4453C73.8083 19.2786 73.7328 19.0755 73.7328 18.8359ZM77.3281 27.0859H78.7578V27.1328C78.7578 27.6068 78.9297 27.9635 79.2734 28.2031C79.6224 28.4427 80.0833 28.5625 80.6562 28.5625C81.2292 28.5625 81.6797 28.4479 82.0078 28.2188C82.3411 27.9896 82.5078 27.6927 82.5078 27.3281C82.5078 26.9635 82.3724 26.6849 82.1016 26.4922C81.8359 26.2943 81.2656 26.0911 80.3906 25.8828C79.5104 25.6745 78.8125 25.3828 78.2969 25.0078C77.7812 24.6328 77.5234 24.1094 77.5234 23.4375C77.5234 22.7656 77.7995 22.2083 78.3516 21.7656C78.9089 21.3229 79.6536 21.1016 80.5859 21.1016C81.513 21.1016 82.2604 21.3229 82.8281 21.7656C83.3958 22.2031 83.6797 22.7995 83.6797 23.5547V23.6016H82.2578V23.5312C82.2578 23.1354 82.1198 22.8255 81.8438 22.6016C81.5729 22.3776 81.1536 22.2656 80.5859 22.2656C80.013 22.2656 79.5938 22.3698 79.3281 22.5781C79.0677 22.7865 78.9375 23.0469 78.9375 23.3594C78.9375 23.6719 79.0859 23.9219 79.3828 24.1094C79.6849 24.2917 80.276 24.487 81.1562 24.6953C82.0365 24.9036 82.7135 25.2005 83.1875 25.5859C83.6667 25.9714 83.9062 26.526 83.9062 27.25C83.9062 27.974 83.6354 28.5703 83.0938 29.0391C82.5521 29.5026 81.7396 29.7344 80.6562 29.7344C79.5729 29.7344 78.7474 29.4974 78.1797 29.0234C77.612 28.5495 77.3281 27.9193 77.3281 27.1328V27.0859ZM84.6813 22.4219V21.3281H89.3297V22.4219H84.6813ZM86.1422 27.4688V21.9844V21.7578V19.2656H87.5641V27.4688C87.5641 27.8438 87.637 28.1094 87.7828 28.2656C87.9339 28.4219 88.1656 28.5 88.4781 28.5C88.624 28.5 88.7646 28.487 88.9 28.4609C89.0406 28.4297 89.1839 28.388 89.3297 28.3359V29.5C89.1943 29.5625 89.0198 29.6172 88.8063 29.6641C88.5927 29.7109 88.3557 29.7344 88.0953 29.7344C87.5016 29.7344 87.0276 29.5547 86.6734 29.1953C86.3193 28.8307 86.1422 28.2552 86.1422 27.4688ZM91.0812 29.5V21.3281H92.5031V29.5H91.0812ZM90.9016 18.8359C90.9016 18.5911 90.9771 18.388 91.1281 18.2266C91.2844 18.0599 91.5057 17.9766 91.7922 17.9766C92.0786 17.9766 92.2974 18.0599 92.4484 18.2266C92.6047 18.388 92.6828 18.5911 92.6828 18.8359C92.6828 19.0755 92.6047 19.2786 92.4484 19.4453C92.2974 19.6068 92.0786 19.6875 91.7922 19.6875C91.5057 19.6875 91.2844 19.6068 91.1281 19.4453C90.9771 19.2786 90.9016 19.0755 90.9016 18.8359ZM94.5281 25.5391V25.2891C94.5281 24.0547 94.8615 23.0495 95.5281 22.2734C96.2 21.4922 97.1193 21.1016 98.2859 21.1016C99.3745 21.1016 100.2 21.3932 100.763 21.9766C101.325 22.5599 101.606 23.2188 101.606 23.9531V23.9922H100.223V23.9531C100.223 23.5052 100.07 23.112 99.7625 22.7734C99.4552 22.4349 98.9656 22.2656 98.2938 22.2656C97.5021 22.2656 96.9188 22.5573 96.5438 23.1406C96.1688 23.7188 95.9813 24.4349 95.9813 25.2891V25.5391C95.9813 26.388 96.1688 27.1042 96.5438 27.6875C96.9188 28.2708 97.4995 28.5625 98.2859 28.5625C98.963 28.5625 99.4552 28.3932 99.7625 28.0547C100.07 27.7161 100.223 27.3229 100.223 26.875V26.8359H101.606V26.875C101.606 27.6042 101.325 28.263 100.763 28.8516C100.2 29.4401 99.3745 29.7344 98.2859 29.7344C97.1193 29.7344 96.2 29.3438 95.5281 28.5625C94.8615 27.7812 94.5281 26.7734 94.5281 25.5391ZM102.912 27.0859H104.342V27.1328C104.342 27.6068 104.514 27.9635 104.858 28.2031C105.207 28.4427 105.668 28.5625 106.241 28.5625C106.814 28.5625 107.264 28.4479 107.592 28.2188C107.926 27.9896 108.092 27.6927 108.092 27.3281C108.092 26.9635 107.957 26.6849 107.686 26.4922C107.42 26.2943 106.85 26.0911 105.975 25.8828C105.095 25.6745 104.397 25.3828 103.881 25.0078C103.366 24.6328 103.108 24.1094 103.108 23.4375C103.108 22.7656 103.384 22.2083 103.936 21.7656C104.493 21.3229 105.238 21.1016 106.17 21.1016C107.097 21.1016 107.845 21.3229 108.412 21.7656C108.98 22.2031 109.264 22.7995 109.264 23.5547V23.6016H107.842V23.5312C107.842 23.1354 107.704 22.8255 107.428 22.6016C107.157 22.3776 106.738 22.2656 106.17 22.2656C105.597 22.2656 105.178 22.3698 104.912 22.5781C104.652 22.7865 104.522 23.0469 104.522 23.3594C104.522 23.6719 104.67 23.9219 104.967 24.1094C105.269 24.2917 105.86 24.487 106.741 24.6953C107.621 24.9036 108.298 25.2005 108.772 25.5859C109.251 25.9714 109.491 26.526 109.491 27.25C109.491 27.974 109.22 28.5703 108.678 29.0391C108.136 29.5026 107.324 29.7344 106.241 29.7344C105.157 29.7344 104.332 29.4974 103.764 29.0234C103.196 28.5495 102.912 27.9193 102.912 27.1328V27.0859Z" fill="#FFF2F2"/>
</g>
<g opacity="0.5" clip-path="url(#clip1_102_1713)">
<path d="M187.674 23.9922V23.4766C187.674 22.1602 188.018 21.1348 188.705 20.4004C189.393 19.6621 190.254 19.293 191.289 19.293C192.328 19.293 193.135 19.5723 193.709 20.1309C194.283 20.6895 194.584 21.3633 194.611 22.1523V22.2109H193.463V22.1523C193.447 21.6367 193.262 21.1973 192.906 20.834C192.555 20.4668 192.016 20.2832 191.289 20.2832C190.578 20.2832 189.99 20.5527 189.525 21.0918C189.064 21.627 188.834 22.4219 188.834 23.4766V23.9922C188.834 24.9883 189.064 25.7695 189.525 26.3359C189.986 26.9023 190.574 27.1855 191.289 27.1855C191.988 27.1855 192.512 27.002 192.859 26.6348C193.207 26.2637 193.406 25.8242 193.457 25.3164L193.463 25.2578H194.611L194.605 25.3164C194.527 26.1016 194.215 26.7754 193.668 27.3379C193.121 27.8965 192.328 28.1758 191.289 28.1758C190.254 28.1758 189.393 27.8086 188.705 27.0742C188.018 26.3359 187.674 25.3086 187.674 23.9922ZM195.271 22.6211V21.7656H198.88V22.6211H195.271ZM196.402 26.4531V22.2812V22.1055V20.3125H197.515V26.4531C197.515 26.7266 197.57 26.9219 197.679 27.0391C197.793 27.1562 197.97 27.2148 198.212 27.2148C198.322 27.2148 198.429 27.2031 198.535 27.1797C198.644 27.1562 198.755 27.125 198.869 27.0859V28C198.763 28.0469 198.627 28.0879 198.459 28.123C198.295 28.1582 198.113 28.1758 197.914 28.1758C197.453 28.1758 197.086 28.0371 196.812 27.7598C196.539 27.4824 196.402 27.0469 196.402 26.4531ZM200.191 28V21.7656H201.198L201.245 22.5684H201.28C201.441 22.3066 201.652 22.0781 201.913 21.8828C202.179 21.6875 202.493 21.5898 202.857 21.5898C202.943 21.5898 203.032 21.5996 203.126 21.6191C203.224 21.6387 203.292 21.6562 203.331 21.6719V22.709C203.253 22.6934 203.169 22.6816 203.079 22.6738C202.993 22.666 202.898 22.6621 202.792 22.6621C202.429 22.6621 202.12 22.7559 201.866 22.9434C201.613 23.1309 201.425 23.3613 201.304 23.6348V28H200.191ZM204.571 28V19H205.684V28H204.571Z" fill="#FFF2F2"/>
<rect x="183.5" y="17.5" width="27" height="13" rx="3.5" stroke="#FFF2F2"/>
<path d="M219.305 23.4238V24.4434H213.457V23.4238H219.305ZM216.926 20.9336V27.1445H215.842V20.9336H216.926Z" fill="#FFF2F2"/>
<path d="M226.527 25.6562V25.5859H227.676V25.6562C227.676 26.168 227.854 26.5527 228.209 26.8105C228.564 27.0645 229.061 27.1914 229.697 27.1914C230.338 27.1914 230.826 27.0605 231.162 26.7988C231.502 26.5332 231.672 26.1895 231.672 25.7676C231.672 25.3809 231.512 25.0723 231.191 24.8418C230.871 24.6074 230.244 24.3633 229.311 24.1094C228.357 23.8438 227.684 23.5312 227.289 23.1719C226.898 22.8086 226.703 22.293 226.703 21.625C226.703 20.957 226.963 20.4023 227.482 19.9609C228.002 19.5156 228.721 19.293 229.639 19.293C230.557 19.293 231.287 19.5293 231.83 20.002C232.373 20.4746 232.645 21.0664 232.645 21.7773V21.8477H231.496V21.7773C231.496 21.3281 231.34 20.9668 231.027 20.6934C230.719 20.416 230.256 20.2773 229.639 20.2773C229.025 20.2773 228.572 20.3965 228.279 20.6348C227.99 20.8691 227.846 21.1816 227.846 21.5723C227.846 21.9473 227.994 22.2422 228.291 22.457C228.588 22.6719 229.188 22.9023 230.09 23.1484C231.035 23.4023 231.725 23.7246 232.158 24.1152C232.596 24.5059 232.814 25.0547 232.814 25.7617C232.814 26.4688 232.533 27.0488 231.971 27.502C231.412 27.9512 230.654 28.1758 229.697 28.1758C228.74 28.1758 227.973 27.9512 227.395 27.502C226.816 27.0488 226.527 26.4336 226.527 25.6562Z" fill="#FFF2F2"/>
<rect x="222.5" y="17.5" width="15" height="13" rx="3.5" stroke="#FFF2F2"/>
</g>
<defs>
<clipPath id="clip0_102_1713">
<rect width="99" height="24" fill="white" transform="translate(12 12)"/>
</clipPath>
<clipPath id="clip1_102_1713">
<rect width="55" height="14" fill="white" transform="translate(183 17)"/>
</clipPath>
</defs>
</svg>
