<svg width="34" height="34" viewBox="0 0 34 34" fill="none" xmlns="http://www.w3.org/2000/svg">
<path d="M22.4635 21.6617C22.5691 21.7683 22.6284 21.9124 22.6284 22.0625C22.6284 22.2126 22.5691 22.3566 22.4635 22.4633C22.356 22.5672 22.2123 22.6253 22.0627 22.6253C21.9132 22.6253 21.7695 22.5672 21.662 22.4633L17.0002 17.7945L12.3385 22.4633C12.231 22.5672 12.0873 22.6253 11.9377 22.6253C11.7882 22.6253 11.6445 22.5672 11.537 22.4633C11.4313 22.3566 11.3721 22.2126 11.3721 22.0625C11.3721 21.9124 11.4313 21.7683 11.537 21.6617L16.2057 17L11.537 12.3383C11.4473 12.229 11.4014 12.0902 11.4084 11.949C11.4153 11.8078 11.4745 11.6742 11.5745 11.5742C11.6745 11.4742 11.808 11.415 11.9493 11.4081C12.0905 11.4012 12.2292 11.447 12.3385 11.5367L17.0002 16.2054L21.662 11.5367C21.7712 11.447 21.91 11.4012 22.0512 11.4081C22.1924 11.415 22.326 11.4742 22.426 11.5742C22.526 11.6742 22.5852 11.8078 22.5921 11.949C22.599 12.0902 22.5532 12.229 22.4635 12.3383L17.7948 17L22.4635 21.6617Z" fill="#F2F9FF"/>
</svg>
