<svg width="67" height="67" viewBox="0 0 67 67" fill="none" xmlns="http://www.w3.org/2000/svg">
<rect x="0.411377" y="0.682266" width="65.9114" height="65.9114" rx="19.7734" fill="#4CACFF" fill-opacity="0.15"/>
<g clip-path="url(#clip0_102_2161)">
<path d="M46.261 33.638C46.2622 33.9142 46.1941 34.1862 46.0627 34.4292C45.9313 34.6721 45.741 34.8781 45.5092 35.0283L36.3228 40.9294C36.0735 41.091 35.7852 41.1821 35.4883 41.1932C35.1915 41.2043 34.8972 41.1349 34.6365 40.9925C34.3759 40.85 34.1586 40.6397 34.0076 40.3839C33.8567 40.128 33.7777 39.8362 33.779 39.5391V35.1519L24.7883 40.9294C24.539 41.091 24.2507 41.1821 23.9538 41.1932C23.657 41.2043 23.3627 41.1349 23.102 40.9925C22.8414 40.85 22.6241 40.6397 22.4731 40.3839C22.3222 40.128 22.2432 39.8362 22.2445 39.5391V27.7369C22.2432 27.4398 22.3222 27.1479 22.4731 26.8921C22.6241 26.6362 22.8414 26.426 23.102 26.2835C23.3627 26.141 23.657 26.0717 23.9538 26.0828C24.2507 26.0939 24.539 26.185 24.7883 26.3465L33.779 32.1241V27.7369C33.7777 27.4398 33.8567 27.1479 34.0076 26.8921C34.1586 26.6362 34.3759 26.426 34.6365 26.2835C34.8972 26.141 35.1915 26.0717 35.4883 26.0828C35.7852 26.0939 36.0735 26.185 36.3228 26.3465L45.5092 32.2477C45.741 32.3978 45.9313 32.6039 46.0627 32.8468C46.1941 33.0897 46.2622 33.3618 46.261 33.638Z" fill="#153047"/>
</g>
<defs>
<clipPath id="clip0_102_2161">
<rect width="26.3646" height="26.3646" fill="white" transform="translate(20.1848 20.4557)"/>
</clipPath>
</defs>
</svg>
