<svg width="107" height="80" viewBox="0 0 107 80" fill="none" xmlns="http://www.w3.org/2000/svg">
<rect x="0.770859" y="0.0911255" width="105.458" height="79.0937" rx="26.3646" fill="#FF4C4C" fill-opacity="0.71"/>
<path d="M62.5628 31.3991V47.8769C62.5628 48.3139 62.3892 48.7331 62.0802 49.0421C61.7712 49.3511 61.3521 49.5247 60.915 49.5247H57.2075C56.7705 49.5247 56.3514 49.3511 56.0424 49.0421C55.7333 48.7331 55.5597 48.3139 55.5597 47.8769V31.3991C55.5597 30.962 55.7333 30.5429 56.0424 30.2339C56.3514 29.9249 56.7705 29.7513 57.2075 29.7513H60.915C61.3521 29.7513 61.7712 29.9249 62.0802 30.2339C62.3892 30.5429 62.5628 30.962 62.5628 31.3991ZM49.7925 29.7513H46.085C45.6479 29.7513 45.2288 29.9249 44.9198 30.2339C44.6108 30.5429 44.4372 30.962 44.4372 31.3991V47.8769C44.4372 48.3139 44.6108 48.7331 44.9198 49.0421C45.2288 49.3511 45.6479 49.5247 46.085 49.5247H49.7925C50.2295 49.5247 50.6486 49.3511 50.9576 49.0421C51.2667 48.7331 51.4403 48.3139 51.4403 47.8769V31.3991C51.4403 30.962 51.2667 30.5429 50.9576 30.2339C50.6486 29.9249 50.2295 29.7513 49.7925 29.7513V29.7513Z" fill="#471515"/>
</svg>
