<svg width="67" height="67" viewBox="0 0 67 67" fill="none" xmlns="http://www.w3.org/2000/svg">
<rect x="0.177139" y="0.682266" width="65.9114" height="65.9114" rx="19.7734" fill="#4DDA6E" fill-opacity="0.15"/>
<path d="M36.0165 33.638C36.0165 34.2083 35.8474 34.7658 35.5305 35.24C35.2136 35.7143 34.7633 36.0839 34.2364 36.3021C33.7095 36.5204 33.1297 36.5775 32.5703 36.4662C32.0109 36.3549 31.4971 36.0803 31.0938 35.677C30.6905 35.2737 30.4159 34.7599 30.3046 34.2006C30.1934 33.6412 30.2505 33.0614 30.4687 32.5345C30.687 32.0076 31.0566 31.5572 31.5308 31.2403C32.005 30.9235 32.5625 30.7544 33.1329 30.7544C33.8968 30.7571 34.6287 31.0618 35.1689 31.602C35.7091 32.1422 36.0138 32.874 36.0165 33.638V33.638ZM24.8939 30.7544C24.3236 30.7544 23.7661 30.9235 23.2919 31.2403C22.8177 31.5572 22.4481 32.0076 22.2298 32.5345C22.0115 33.0614 21.9544 33.6412 22.0657 34.2006C22.177 34.7599 22.4516 35.2737 22.8549 35.677C23.2582 36.0803 23.772 36.3549 24.3314 36.4662C24.8907 36.5775 25.4705 36.5204 25.9974 36.3021C26.5244 36.0839 26.9747 35.7143 27.2916 35.24C27.6084 34.7658 27.7776 34.2083 27.7776 33.638C27.7748 32.874 27.4702 32.1422 26.93 31.602C26.3898 31.0618 25.6579 30.7571 24.8939 30.7544V30.7544ZM41.3718 30.7544C40.8015 30.7544 40.2439 30.9235 39.7697 31.2403C39.2955 31.5572 38.9259 32.0076 38.7077 32.5345C38.4894 33.0614 38.4323 33.6412 38.5436 34.2006C38.6548 34.7599 38.9295 35.2737 39.3328 35.677C39.736 36.0803 40.2499 36.3549 40.8092 36.4662C41.3686 36.5775 41.9484 36.5204 42.4753 36.3021C43.0022 36.0839 43.4526 35.7143 43.7694 35.24C44.0863 34.7658 44.2554 34.2083 44.2554 33.638C44.2527 32.874 43.948 32.1422 43.4078 31.602C42.8676 31.0618 42.1357 30.7571 41.3718 30.7544Z" fill="#14401D"/>
</svg>
