<svg width="67" height="67" viewBox="0 0 67 67" fill="none" xmlns="http://www.w3.org/2000/svg">
<rect x="0.411438" y="0.682266" width="65.9114" height="65.9114" rx="19.7734" fill="#FF4C4C" fill-opacity="0.15"/>
<g clip-path="url(#clip0_102_1900)">
<path d="M46.2611 33.638C46.2623 33.9142 46.1941 34.1862 46.0627 34.4292C45.9314 34.6721 45.7411 34.8781 45.5093 35.0283L36.3229 40.9294C36.0736 41.091 35.7852 41.1821 35.4884 41.1932C35.1916 41.2043 34.8972 41.1349 34.6366 40.9925C34.3759 40.85 34.1586 40.6397 34.0077 40.3839C33.8567 40.128 33.7777 39.8362 33.7791 39.5391V35.1519L24.7884 40.9294C24.5391 41.091 24.2507 41.1821 23.9539 41.1932C23.6571 41.2043 23.3627 41.1349 23.1021 40.9925C22.8414 40.85 22.6241 40.6397 22.4732 40.3839C22.3222 40.128 22.2432 39.8362 22.2446 39.5391V27.7369C22.2432 27.4398 22.3222 27.1479 22.4732 26.8921C22.6241 26.6362 22.8414 26.426 23.1021 26.2835C23.3627 26.141 23.6571 26.0717 23.9539 26.0828C24.2507 26.0939 24.5391 26.185 24.7884 26.3465L33.7791 32.1241V27.7369C33.7777 27.4398 33.8567 27.1479 34.0077 26.8921C34.1586 26.6362 34.3759 26.426 34.6366 26.2835C34.8972 26.141 35.1916 26.0717 35.4884 26.0828C35.7852 26.0939 36.0736 26.185 36.3229 26.3465L45.5093 32.2477C45.7411 32.3978 45.9314 32.6039 46.0627 32.8468C46.1941 33.0897 46.2623 33.3618 46.2611 33.638Z" fill="#471515"/>
</g>
<defs>
<clipPath id="clip0_102_1900">
<rect width="26.3646" height="26.3646" fill="white" transform="translate(20.1849 20.4557)"/>
</clipPath>
</defs>
</svg>
