<svg width="159" height="41" viewBox="0 0 159 41" fill="none" xmlns="http://www.w3.org/2000/svg">
<rect x="1.16374" y="1.63902" width="156.673" height="37.8991" rx="18.9495" fill="#4CACFF" fill-opacity="0.15"/>
<g clip-path="url(#clip0_102_2149)">
<path d="M21.761 13.1735V9.87792C21.761 9.65941 21.8478 9.44985 22.0023 9.29534C22.1568 9.14083 22.3664 9.05403 22.5849 9.05403C22.8034 9.05403 23.013 9.14083 23.1675 9.29534C23.322 9.44985 23.4088 9.65941 23.4088 9.87792V13.1735C23.4088 13.392 23.322 13.6016 23.1675 13.7561C23.013 13.9106 22.8034 13.9974 22.5849 13.9974C22.3664 13.9974 22.1568 13.9106 22.0023 13.7561C21.8478 13.6016 21.761 13.392 21.761 13.1735ZM25.8805 13.9974C26.099 13.9974 26.3086 13.9106 26.4631 13.7561C26.6176 13.6016 26.7044 13.392 26.7044 13.1735V9.87792C26.7044 9.65941 26.6176 9.44985 26.4631 9.29534C26.3086 9.14083 26.099 9.05403 25.8805 9.05403C25.662 9.05403 25.4524 9.14083 25.2979 9.29534C25.1434 9.44985 25.0566 9.65941 25.0566 9.87792V13.1735C25.0566 13.392 25.1434 13.6016 25.2979 13.7561C25.4524 13.9106 25.662 13.9974 25.8805 13.9974ZM29.1761 13.9974C29.3946 13.9974 29.6041 13.9106 29.7586 13.7561C29.9132 13.6016 30 13.392 30 13.1735V9.87792C30 9.65941 29.9132 9.44985 29.7586 9.29534C29.6041 9.14083 29.3946 9.05403 29.1761 9.05403C28.9576 9.05403 28.748 9.14083 28.5935 9.29534C28.439 9.44985 28.3522 9.65941 28.3522 9.87792V13.1735C28.3522 13.392 28.439 13.6016 28.5935 13.7561C28.748 13.9106 28.9576 13.9974 29.1761 13.9974ZM39.0628 19.7646V20.5885C39.0622 21.6361 38.6625 22.6441 37.9451 23.4075C37.2276 24.1709 36.2463 24.6322 35.2008 24.6977C34.6333 26.2849 33.6773 27.7047 32.4201 28.8275H34.9433C35.1618 28.8275 35.3714 28.9143 35.5259 29.0688C35.6804 29.2233 35.7672 29.4328 35.7672 29.6514C35.7672 29.8699 35.6804 30.0794 35.5259 30.2339C35.3714 30.3884 35.1618 30.4752 34.9433 30.4752H16.8177C16.5992 30.4752 16.3896 30.3884 16.2351 30.2339C16.0806 30.0794 15.9938 29.8699 15.9938 29.6514C15.9938 29.4328 16.0806 29.2233 16.2351 29.0688C16.3896 28.9143 16.5992 28.8275 16.8177 28.8275H19.3408C18.2909 27.898 17.4498 26.7566 16.8729 25.4785C16.296 24.2005 15.9964 22.8147 15.9938 21.4124V16.4691C15.9938 16.2506 16.0806 16.041 16.2351 15.8865C16.3896 15.732 16.5992 15.6452 16.8177 15.6452H34.9433C36.0359 15.6452 37.0837 16.0792 37.8562 16.8517C38.6288 17.6243 39.0628 18.6721 39.0628 19.7646ZM34.1194 17.293H17.6416V21.4124C17.6449 22.9591 18.0819 24.4738 18.9029 25.7845C19.724 27.0953 20.8961 28.1495 22.2863 28.8275H29.4747C30.5132 28.32 31.4337 27.6005 32.177 26.7153C32.9202 25.8301 33.4697 24.799 33.7899 23.6884C33.8014 23.6697 33.8084 23.6485 33.8105 23.6266C34.0175 22.9069 34.1215 22.1614 34.1194 21.4124V17.293ZM37.415 19.7646C37.4144 19.254 37.2557 18.7561 36.9606 18.3393C36.6656 17.9225 36.2486 17.6074 35.7672 17.4371V21.4124C35.7678 21.9299 35.7265 22.4465 35.6436 22.9572C36.1548 22.8062 36.6035 22.494 36.9227 22.0671C37.2419 21.6402 37.4146 21.1216 37.415 20.5885V19.7646Z" fill="#153047"/>
</g>
<path d="M48.176 27.0885V13.0309H50.3483V25.3506H56.7206V27.0885H48.176ZM57.9082 22.2417V21.9328C57.9082 20.4073 58.3523 19.1747 59.2406 18.2349C60.1288 17.2887 61.3035 16.8156 62.7647 16.8156C64.2322 16.8156 65.4101 17.2887 66.2984 18.2349C67.1866 19.1747 67.6308 20.4073 67.6308 21.9328V22.2417C67.6308 23.7737 67.1866 25.0127 66.2984 25.9589C65.4101 26.8987 64.2322 27.3685 62.7647 27.3685C61.3035 27.3685 60.1288 26.8987 59.2406 25.9589C58.3523 25.0127 57.9082 23.7737 57.9082 22.2417ZM60.0613 21.8845V22.29C60.0613 23.2941 60.2898 24.1148 60.7468 24.752C61.2038 25.3828 61.8764 25.6982 62.7647 25.6982C63.6529 25.6982 64.3256 25.3828 64.7826 24.752C65.2396 24.1148 65.4681 23.2941 65.4681 22.29V21.8845C65.4681 20.8868 65.2363 20.0694 64.7729 19.4321C64.3159 18.7949 63.6465 18.4763 62.7647 18.4763C61.8828 18.4763 61.2102 18.7949 60.7468 19.4321C60.2898 20.0694 60.0613 20.8868 60.0613 21.8845ZM69.7066 27.0885V17.0956H71.6666L71.7342 18.3508H71.7824C72.1043 17.9066 72.5259 17.5526 73.0472 17.2887C73.575 17.0248 74.1576 16.8929 74.7948 16.8929C75.8053 16.8929 76.6164 17.1825 77.2278 17.7618C77.8393 18.3347 78.1451 19.3066 78.1451 20.6776V27.0885H76.0403V20.6776C76.0403 19.9245 75.8729 19.3903 75.5382 19.0749C75.21 18.7595 74.7433 18.6018 74.1382 18.6018C73.6233 18.6018 73.1631 18.7434 72.7576 19.0266C72.3521 19.3098 72.0399 19.6832 71.821 20.1466V27.0885H69.7066ZM80.5878 29.8982L81.6691 28.4402C81.9395 28.7299 82.3353 28.9938 82.8567 29.232C83.3781 29.4701 83.9574 29.5892 84.5946 29.5892C85.3928 29.5892 86.0332 29.351 86.516 28.8747C87.0051 28.3984 87.2497 27.6968 87.2497 26.7699V25.9299C86.9665 26.3355 86.5803 26.6605 86.0911 26.9051C85.6019 27.1497 85.013 27.272 84.3243 27.272C83.0562 27.272 82.0393 26.8053 81.2733 25.872C80.5138 24.9323 80.134 23.7222 80.134 22.2417V21.9328C80.134 20.4588 80.5138 19.2519 81.2733 18.3122C82.0328 17.3724 83.053 16.9025 84.3339 16.9025C85.0033 16.9025 85.5987 17.0441 86.1201 17.3273C86.6415 17.6041 87.0244 17.9453 87.269 18.3508H87.327L87.3849 17.0956H89.3449V26.7217C89.3449 28.1957 88.9136 29.3253 88.0511 30.1106C87.1886 30.9023 86.0686 31.2981 84.6912 31.2981C83.848 31.2981 83.0723 31.1662 82.3643 30.9023C81.6563 30.6384 81.0641 30.3037 80.5878 29.8982ZM82.2774 22.2804C82.2774 23.2394 82.4866 24.0343 82.905 24.6651C83.3234 25.2959 83.9735 25.6113 84.8553 25.6113C85.441 25.6113 85.9399 25.4504 86.3518 25.1286C86.7638 24.8003 87.0598 24.427 87.2401 24.0086V20.1852C87.0598 19.7475 86.7605 19.3678 86.3422 19.0459C85.9302 18.7241 85.4314 18.5632 84.8456 18.5632C83.9702 18.5632 83.3234 18.8818 82.905 19.519C82.4866 20.1498 82.2774 20.9415 82.2774 21.8942V22.2804ZM96.8951 27.0885V13.0309H101.665C103.094 13.0309 104.214 13.3302 105.025 13.9288C105.842 14.5274 106.251 15.4607 106.251 16.7287C106.251 17.5076 106.061 18.1448 105.681 18.6404C105.308 19.136 104.844 19.4804 104.291 19.6735V19.7121C104.973 19.9117 105.533 20.2914 105.971 20.8514C106.408 21.4114 106.627 22.1484 106.627 23.0624C106.627 24.3369 106.199 25.3281 105.343 26.0362C104.494 26.7377 103.361 27.0885 101.945 27.0885H96.8951ZM99.0288 25.4182H101.887C102.775 25.4182 103.425 25.2026 103.837 24.7713C104.255 24.3337 104.465 23.7415 104.465 22.9948C104.465 22.261 104.255 21.6785 103.837 21.2473C103.425 20.8096 102.775 20.5907 101.887 20.5907H99.0288V25.4182ZM99.0288 18.9784H101.607C102.489 18.9784 103.126 18.7885 103.518 18.4087C103.911 18.0289 104.107 17.5011 104.107 16.8253C104.107 16.143 103.911 15.6216 103.518 15.2612C103.126 14.8943 102.489 14.7108 101.607 14.7108H99.0288V18.9784ZM108.829 27.0885V17.0956H110.798L110.856 18.3315H110.914C111.152 17.926 111.471 17.5752 111.87 17.2791C112.269 16.9765 112.739 16.8253 113.28 16.8253C113.421 16.8253 113.566 16.8414 113.714 16.8736C113.862 16.8993 113.968 16.9251 114.033 16.9508V18.8239C113.91 18.7981 113.778 18.7788 113.637 18.7659C113.502 18.7466 113.35 18.737 113.183 18.737C112.662 18.737 112.205 18.8818 111.812 19.1715C111.426 19.4611 111.136 19.8248 110.943 20.2625V27.0885H108.829ZM114.834 22.2417V21.9328C114.834 20.4137 115.262 19.1811 116.118 18.2349C116.981 17.2887 118.11 16.8156 119.507 16.8156C120.897 16.8156 121.976 17.2598 122.741 18.148C123.507 19.0298 123.89 20.2367 123.89 21.7686V22.57H116.166V21.0735H121.786V20.8611C121.792 20.1981 121.602 19.6317 121.216 19.1618C120.836 18.6855 120.279 18.4473 119.546 18.4473C118.683 18.4473 118.036 18.7724 117.605 19.4225C117.174 20.0661 116.958 20.8836 116.958 21.8748V22.29C116.958 23.2813 117.187 24.1019 117.644 24.752C118.107 25.3957 118.805 25.7175 119.739 25.7175C120.344 25.7175 120.862 25.5824 121.293 25.312C121.725 25.0417 122.075 24.7199 122.346 24.3465L123.784 25.3506C123.469 25.8785 122.967 26.3483 122.278 26.7603C121.589 27.1658 120.749 27.3685 119.758 27.3685C118.188 27.3685 116.974 26.8954 116.118 25.9493C115.262 25.0031 114.834 23.7672 114.834 22.2417ZM125.339 24.1534C125.339 23.1171 125.747 22.3158 126.565 21.7493C127.382 21.1829 128.425 20.8997 129.693 20.8997H131.875V20.2335C131.875 19.6735 131.73 19.2229 131.441 18.8818C131.157 18.5407 130.665 18.3701 129.963 18.3701C129.262 18.3701 128.757 18.5117 128.448 18.7949C128.145 19.0781 127.994 19.4225 127.994 19.828V19.9245H125.908V19.8087C125.908 18.9848 126.282 18.28 127.028 17.6942C127.781 17.1085 128.782 16.8156 130.031 16.8156C131.286 16.8156 132.258 17.0988 132.947 17.6653C133.636 18.2253 133.98 19.0846 133.98 20.2432V24.7907C133.98 25.209 134.012 25.6017 134.076 25.9686C134.147 26.3355 134.244 26.6573 134.366 26.9341V27.0885H132.31C132.226 26.9276 132.149 26.7249 132.078 26.4803C132.007 26.2293 131.962 25.9782 131.943 25.7272C131.724 26.1327 131.344 26.4932 130.803 26.8086C130.269 27.1175 129.587 27.272 128.757 27.272C127.791 27.272 126.98 27.0081 126.323 26.4803C125.667 25.9525 125.339 25.1769 125.339 24.1534ZM127.453 24.0183C127.453 24.5461 127.604 24.9612 127.907 25.2638C128.216 25.5663 128.695 25.7175 129.346 25.7175C130.008 25.7175 130.594 25.4955 131.103 25.0513C131.618 24.6008 131.875 24.1052 131.875 23.5645V22.29H129.983C129.14 22.29 128.506 22.4445 128.081 22.7535C127.662 23.056 127.453 23.4776 127.453 24.0183ZM136.616 27.0885V12.3743H138.73V21.3438L142.669 17.0956H145.045L138.73 23.8058V27.0885H136.616ZM143.017 27.0885L139.28 22.0486L140.613 20.5811L145.489 27.0885H143.017Z" fill="#153047"/>
<rect x="1.16374" y="1.63902" width="156.673" height="37.8991" rx="18.9495" stroke="#153047" stroke-width="1.64779"/>
<defs>
<clipPath id="clip0_102_2149">
<rect width="26.3646" height="26.3646" fill="white" transform="translate(13.5221 7.40625)"/>
</clipPath>
</defs>
</svg>
