<svg width="164" height="41" viewBox="0 0 164 41" fill="none" xmlns="http://www.w3.org/2000/svg">
<rect x="1.66375" y="1.63902" width="160.673" height="37.8991" rx="18.9495" fill="#4DDA6E" fill-opacity="0.15"/>
<path d="M22.2611 13.1735V9.87792C22.2611 9.65941 22.3479 9.44985 22.5024 9.29534C22.6569 9.14083 22.8665 9.05403 23.085 9.05403C23.3035 9.05403 23.513 9.14083 23.6676 9.29534C23.8221 9.44985 23.9089 9.65941 23.9089 9.87792V13.1735C23.9089 13.392 23.8221 13.6016 23.6676 13.7561C23.513 13.9106 23.3035 13.9974 23.085 13.9974C22.8665 13.9974 22.6569 13.9106 22.5024 13.7561C22.3479 13.6016 22.2611 13.392 22.2611 13.1735ZM26.3806 13.9974C26.5991 13.9974 26.8086 13.9106 26.9631 13.7561C27.1176 13.6016 27.2044 13.392 27.2044 13.1735V9.87792C27.2044 9.65941 27.1176 9.44985 26.9631 9.29534C26.8086 9.14083 26.5991 9.05403 26.3806 9.05403C26.162 9.05403 25.9525 9.14083 25.798 9.29534C25.6435 9.44985 25.5567 9.65941 25.5567 9.87792V13.1735C25.5567 13.392 25.6435 13.6016 25.798 13.7561C25.9525 13.9106 26.162 13.9974 26.3806 13.9974ZM29.6761 13.9974C29.8946 13.9974 30.1042 13.9106 30.2587 13.7561C30.4132 13.6016 30.5 13.392 30.5 13.1735V9.87792C30.5 9.65941 30.4132 9.44985 30.2587 9.29534C30.1042 9.14083 29.8946 9.05403 29.6761 9.05403C29.4576 9.05403 29.2481 9.14083 29.0935 9.29534C28.939 9.44985 28.8522 9.65941 28.8522 9.87792V13.1735C28.8522 13.392 28.939 13.6016 29.0935 13.7561C29.2481 13.9106 29.4576 13.9974 29.6761 13.9974ZM39.5628 19.7646V20.5885C39.5623 21.6361 39.1626 22.6441 38.4452 23.4075C37.7277 24.1709 36.7464 24.6322 35.7008 24.6977C35.1334 26.2849 34.1774 27.7047 32.9202 28.8275H35.4434C35.6619 28.8275 35.8714 28.9143 36.026 29.0688C36.1805 29.2233 36.2673 29.4328 36.2673 29.6514C36.2673 29.8699 36.1805 30.0794 36.026 30.2339C35.8714 30.3884 35.6619 30.4752 35.4434 30.4752H17.3177C17.0992 30.4752 16.8897 30.3884 16.7351 30.2339C16.5806 30.0794 16.4938 29.8699 16.4938 29.6514C16.4938 29.4328 16.5806 29.2233 16.7351 29.0688C16.8897 28.9143 17.0992 28.8275 17.3177 28.8275H19.8409C18.791 27.898 17.9499 26.7566 17.373 25.4785C16.7961 24.2005 16.4964 22.8147 16.4938 21.4124V16.4691C16.4938 16.2506 16.5806 16.041 16.7351 15.8865C16.8897 15.732 17.0992 15.6452 17.3177 15.6452H35.4434C36.5359 15.6452 37.5837 16.0792 38.3563 16.8517C39.1288 17.6243 39.5628 18.6721 39.5628 19.7646ZM34.6195 17.293H18.1416V21.4124C18.145 22.9591 18.582 24.4738 19.403 25.7845C20.224 27.0953 21.3962 28.1495 22.7863 28.8275H29.9748C31.0132 28.32 31.9338 27.6005 32.677 26.7153C33.4203 25.8301 33.9697 24.799 34.2899 23.6884C34.3014 23.6697 34.3085 23.6485 34.3105 23.6266C34.5176 22.9069 34.6216 22.1614 34.6195 21.4124V17.293ZM37.9151 19.7646C37.9145 19.254 37.7557 18.7561 37.4607 18.3393C37.1656 17.9225 36.7487 17.6074 36.2673 17.4371V21.4124C36.2679 21.9299 36.2266 22.4465 36.1437 22.9572C36.6549 22.8062 37.1036 22.494 37.4228 22.0671C37.742 21.6402 37.9147 21.1216 37.9151 20.5885V19.7646Z" fill="#14401D"/>
<path d="M48.185 23.2169V22.9852H50.367V23.1976C50.367 24.0022 50.6277 24.6072 51.1491 25.0127C51.6704 25.4118 52.401 25.6113 53.3407 25.6113C54.2805 25.6113 54.9982 25.4118 55.4938 25.0127C55.9959 24.6072 56.2469 24.0762 56.2469 23.4196C56.2469 22.8017 56.0055 22.3125 55.5228 21.9521C55.0465 21.5916 54.1067 21.2087 52.7035 20.8031C51.2166 20.3719 50.1353 19.8505 49.4594 19.239C48.79 18.6211 48.4521 17.7554 48.4457 16.6418C48.4457 15.5026 48.8737 14.5692 49.7298 13.8419C50.5858 13.1146 51.7605 12.7509 53.2538 12.7509C54.7407 12.7509 55.9251 13.1274 56.8069 13.8805C57.6951 14.6336 58.1393 15.6184 58.1393 16.8349V17.0377H55.9766V16.8543C55.9766 16.1462 55.7481 15.5798 55.2911 15.155C54.834 14.7237 54.1582 14.5081 53.2635 14.5081C52.3559 14.5081 51.6865 14.6915 51.2553 15.0584C50.8304 15.4189 50.618 15.9113 50.618 16.5356C50.618 17.1085 50.8401 17.5591 51.2842 17.8873C51.7348 18.2092 52.6713 18.5761 54.0938 18.988C55.5614 19.4064 56.646 19.9406 57.3476 20.5907C58.0556 21.2408 58.4096 22.1581 58.4096 23.3424C58.4096 24.5525 57.9526 25.5277 57.0386 26.2679C56.1246 27.0017 54.8952 27.3685 53.3504 27.3685C51.8056 27.3685 50.5569 27.0049 49.6043 26.2775C48.6581 25.5502 48.185 24.53 48.185 23.2169ZM60.4468 27.0885V12.3743H62.5516V18.3701C62.8799 17.926 63.3111 17.5687 63.8454 17.2984C64.3796 17.028 64.9847 16.8929 65.6605 16.8929C66.6003 16.8929 67.3694 17.1825 67.9681 17.7618C68.5731 18.3411 68.8756 19.3002 68.8756 20.639V27.0885H66.7612V20.7066C66.7612 19.9471 66.5938 19.4064 66.2591 19.0846C65.9244 18.7627 65.4545 18.6018 64.8495 18.6018C64.3217 18.6018 63.8615 18.7466 63.4688 19.0363C63.0762 19.3195 62.7737 19.6993 62.5613 20.1756V27.0885H60.4468ZM70.8742 22.2417V21.9328C70.8742 20.4073 71.3183 19.1747 72.2066 18.2349C73.0949 17.2887 74.2696 16.8156 75.7307 16.8156C77.1982 16.8156 78.3761 17.2887 79.2644 18.2349C80.1527 19.1747 80.5968 20.4073 80.5968 21.9328V22.2417C80.5968 23.7737 80.1527 25.0127 79.2644 25.9589C78.3761 26.8987 77.1982 27.3685 75.7307 27.3685C74.2696 27.3685 73.0949 26.8987 72.2066 25.9589C71.3183 25.0127 70.8742 23.7737 70.8742 22.2417ZM73.0273 21.8845V22.29C73.0273 23.2941 73.2558 24.1148 73.7128 24.752C74.1698 25.3828 74.8424 25.6982 75.7307 25.6982C76.6189 25.6982 77.2916 25.3828 77.7486 24.752C78.2056 24.1148 78.4341 23.2941 78.4341 22.29V21.8845C78.4341 20.8868 78.2024 20.0694 77.7389 19.4321C77.2819 18.7949 76.6125 18.4763 75.7307 18.4763C74.8489 18.4763 74.1762 18.7949 73.7128 19.4321C73.2558 20.0694 73.0273 20.8868 73.0273 21.8845ZM82.6726 27.0885V17.0956H84.6422L84.7002 18.3315H84.7581C84.9963 17.926 85.3149 17.5752 85.7139 17.2791C86.113 16.9765 86.5829 16.8253 87.1236 16.8253C87.2652 16.8253 87.41 16.8414 87.558 16.8736C87.7061 16.8993 87.8123 16.9251 87.8767 16.9508V18.8239C87.7544 18.7981 87.6224 18.7788 87.4808 18.7659C87.3456 18.7466 87.1944 18.737 87.027 18.737C86.5056 18.737 86.0486 18.8818 85.656 19.1715C85.2698 19.4611 84.9802 19.8248 84.7871 20.2625V27.0885H82.6726ZM88.6201 18.679V17.0956H94.5V18.679H88.6201ZM90.3097 24.4238V17.9453V17.6846V14.5177H92.4049V24.3658C92.4049 24.855 92.495 25.1929 92.6752 25.3796C92.8554 25.5663 93.1258 25.6596 93.4862 25.6596C93.6536 25.6596 93.8177 25.6435 93.9786 25.6113C94.146 25.5727 94.3101 25.5212 94.471 25.4569V27.0885C94.3165 27.1594 94.1041 27.2237 93.8338 27.2816C93.5635 27.3396 93.2674 27.3685 92.9455 27.3685C92.1409 27.3685 91.5005 27.1336 91.0242 26.6637C90.5479 26.1939 90.3097 25.4472 90.3097 24.4238ZM101.152 27.0885V13.0309H105.922C107.351 13.0309 108.471 13.3302 109.282 13.9288C110.099 14.5274 110.508 15.4607 110.508 16.7287C110.508 17.5076 110.318 18.1448 109.938 18.6404C109.565 19.136 109.102 19.4804 108.548 19.6735V19.7121C109.23 19.9117 109.79 20.2914 110.228 20.8514C110.666 21.4114 110.885 22.1484 110.885 23.0624C110.885 24.3369 110.456 25.3281 109.6 26.0362C108.751 26.7377 107.618 27.0885 106.202 27.0885H101.152ZM103.286 25.4182H106.144C107.032 25.4182 107.682 25.2026 108.094 24.7713C108.513 24.3337 108.722 23.7415 108.722 22.9948C108.722 22.261 108.513 21.6785 108.094 21.2473C107.682 20.8096 107.032 20.5907 106.144 20.5907H103.286V25.4182ZM103.286 18.9784H105.864C106.746 18.9784 107.383 18.7885 107.776 18.4087C108.168 18.0289 108.365 17.5011 108.365 16.8253C108.365 16.143 108.168 15.6216 107.776 15.2612C107.383 14.8943 106.746 14.7108 105.864 14.7108H103.286V18.9784ZM113.086 27.0885V17.0956H115.055L115.113 18.3315H115.171C115.409 17.926 115.728 17.5752 116.127 17.2791C116.526 16.9765 116.996 16.8253 117.537 16.8253C117.678 16.8253 117.823 16.8414 117.971 16.8736C118.119 16.8993 118.226 16.9251 118.29 16.9508V18.8239C118.168 18.7981 118.036 18.7788 117.894 18.7659C117.759 18.7466 117.608 18.737 117.44 18.737C116.919 18.737 116.462 18.8818 116.069 19.1715C115.683 19.4611 115.393 19.8248 115.2 20.2625V27.0885H113.086ZM119.091 22.2417V21.9328C119.091 20.4137 119.519 19.1811 120.375 18.2349C121.238 17.2887 122.368 16.8156 123.764 16.8156C125.155 16.8156 126.233 17.2598 126.999 18.148C127.765 19.0298 128.148 20.2367 128.148 21.7686V22.57H120.424V21.0735H126.043V20.8611C126.049 20.1981 125.859 19.6317 125.473 19.1618C125.093 18.6855 124.537 18.4473 123.803 18.4473C122.94 18.4473 122.293 18.7724 121.862 19.4225C121.431 20.0661 121.215 20.8836 121.215 21.8748V22.29C121.215 23.2813 121.444 24.1019 121.901 24.752C122.364 25.3957 123.063 25.7175 123.996 25.7175C124.601 25.7175 125.119 25.5824 125.55 25.312C125.982 25.0417 126.333 24.7199 126.603 24.3465L128.041 25.3506C127.726 25.8785 127.224 26.3483 126.535 26.7603C125.847 27.1658 125.007 27.3685 124.015 27.3685C122.445 27.3685 121.231 26.8954 120.375 25.9493C119.519 25.0031 119.091 23.7672 119.091 22.2417ZM129.596 24.1534C129.596 23.1171 130.005 22.3158 130.822 21.7493C131.64 21.1829 132.682 20.8997 133.95 20.8997H136.132V20.2335C136.132 19.6735 135.988 19.2229 135.698 18.8818C135.415 18.5407 134.922 18.3701 134.221 18.3701C133.519 18.3701 133.014 18.5117 132.705 18.7949C132.402 19.0781 132.251 19.4225 132.251 19.828V19.9245H130.166V19.8087C130.166 18.9848 130.539 18.28 131.286 17.6942C132.039 17.1085 133.04 16.8156 134.288 16.8156C135.543 16.8156 136.515 17.0988 137.204 17.6653C137.893 18.2253 138.237 19.0846 138.237 20.2432V24.7907C138.237 25.209 138.269 25.6017 138.334 25.9686C138.404 26.3355 138.501 26.6573 138.623 26.9341V27.0885H136.567C136.483 26.9276 136.406 26.7249 136.335 26.4803C136.264 26.2293 136.219 25.9782 136.2 25.7272C135.981 26.1327 135.601 26.4932 135.061 26.8086C134.526 27.1175 133.844 27.272 133.014 27.272C132.048 27.272 131.237 27.0081 130.581 26.4803C129.924 25.9525 129.596 25.1769 129.596 24.1534ZM131.71 24.0183C131.71 24.5461 131.862 24.9612 132.164 25.2638C132.473 25.5663 132.953 25.7175 133.603 25.7175C134.266 25.7175 134.851 25.4955 135.36 25.0513C135.875 24.6008 136.132 24.1052 136.132 23.5645V22.29H134.24C133.397 22.29 132.763 22.4445 132.338 22.7535C131.92 23.056 131.71 23.4776 131.71 24.0183ZM140.873 27.0885V12.3743H142.987V21.3438L146.927 17.0956H149.302L142.987 23.8058V27.0885H140.873ZM147.274 27.0885L143.538 22.0486L144.87 20.5811L149.746 27.0885H147.274Z" fill="#14401D"/>
<rect x="1.66375" y="1.63902" width="160.673" height="37.8991" rx="18.9495" stroke="#14401D" stroke-width="1.64779"/>
</svg>
