<svg width="250" height="48" viewBox="0 0 250 48" fill="none" xmlns="http://www.w3.org/2000/svg">
<g clip-path="url(#clip0_102_1735)">
<path d="M32.25 15.75H15.75C15.3522 15.75 14.9706 15.908 14.6893 16.1893C14.408 16.4706 14.25 16.8522 14.25 17.25V30.75C14.25 31.1478 14.408 31.5294 14.6893 31.8107C14.9706 32.092 15.3522 32.25 15.75 32.25H32.25C32.6478 32.25 33.0294 32.092 33.3107 31.8107C33.592 31.5294 33.75 31.1478 33.75 30.75V17.25C33.75 16.8522 33.592 16.4706 33.3107 16.1893C33.0294 15.908 32.6478 15.75 32.25 15.75ZM29.25 24.75C29.25 24.9489 29.171 25.1397 29.0303 25.2803C28.8897 25.421 28.6989 25.5 28.5 25.5H21.3094L22.2844 26.4656C22.4252 26.6078 22.5042 26.7999 22.5042 27C22.5042 27.2001 22.4252 27.3922 22.2844 27.5344C22.141 27.673 21.9494 27.7505 21.75 27.7505C21.5506 27.7505 21.359 27.673 21.2156 27.5344L18.9656 25.2844C18.8248 25.1422 18.7458 24.9501 18.7458 24.75C18.7458 24.5499 18.8248 24.3578 18.9656 24.2156L21.2156 21.9656C21.3613 21.846 21.5463 21.7849 21.7346 21.7942C21.9229 21.8034 22.101 21.8824 22.2343 22.0157C22.3676 22.149 22.4466 22.3271 22.4558 22.5154C22.4651 22.7037 22.404 22.8887 22.2844 23.0344L21.3094 24H27.75V21.75C27.75 21.5511 27.829 21.3603 27.9697 21.2197C28.1103 21.079 28.3011 21 28.5 21C28.6989 21 28.8897 21.079 29.0303 21.2197C29.171 21.3603 29.25 21.5511 29.25 21.75V24.75Z" fill="#FFF2F2"/>
<path d="M44.7031 26.3906V26.2812H46.1719V26.3906C46.1719 27.0885 46.4036 27.612 46.8672 27.9609C47.3307 28.3047 47.9766 28.4766 48.8047 28.4766C49.638 28.4766 50.2734 28.2995 50.7109 27.9453C51.1536 27.5859 51.375 27.1172 51.375 26.5391C51.375 26.013 51.1615 25.5938 50.7344 25.2812C50.3125 24.9635 49.5078 24.6328 48.3203 24.2891C47.0964 23.9297 46.2266 23.5104 45.7109 23.0312C45.1953 22.5521 44.9375 21.8672 44.9375 20.9766C44.9375 20.0964 45.2708 19.362 45.9375 18.7734C46.6094 18.1849 47.5417 17.8906 48.7344 17.8906C49.9167 17.8906 50.8594 18.2005 51.5625 18.8203C52.2656 19.4349 52.6172 20.2214 52.6172 21.1797V21.2891H51.1484V21.1797C51.1484 20.5703 50.9453 20.0807 50.5391 19.7109C50.1328 19.3359 49.5312 19.1484 48.7344 19.1484C47.9323 19.1484 47.3411 19.3099 46.9609 19.6328C46.5807 19.9505 46.3906 20.3854 46.3906 20.9375C46.3906 21.4375 46.5859 21.8333 46.9766 22.125C47.3672 22.4115 48.1667 22.7292 49.375 23.0781C50.5833 23.4219 51.4609 23.8516 52.0078 24.3672C52.5599 24.8828 52.8359 25.6068 52.8359 26.5391C52.8359 27.4714 52.474 28.237 51.75 28.8359C51.026 29.4349 50.0443 29.7344 48.8047 29.7344C47.5651 29.7344 46.5703 29.4375 45.8203 28.8438C45.0755 28.2448 44.7031 27.4271 44.7031 26.3906ZM54.7672 29.5V17.5312H56.1891V22.3438C56.4755 21.9896 56.8427 21.7057 57.2906 21.4922C57.7385 21.2786 58.2255 21.1719 58.7516 21.1719C59.5172 21.1719 60.1422 21.4062 60.6266 21.875C61.1161 22.3438 61.3609 23.125 61.3609 24.2188V29.5H59.9391V24.2109C59.9391 23.5547 59.7906 23.0859 59.4937 22.8047C59.2021 22.5182 58.7854 22.375 58.2437 22.375C57.7802 22.375 57.3714 22.5 57.0172 22.75C56.663 23 56.387 23.3229 56.1891 23.7188V29.5H54.7672ZM63.2375 25.5391V25.2891C63.2375 24.0547 63.5865 23.0495 64.2844 22.2734C64.9823 21.4922 65.9146 21.1016 67.0812 21.1016C68.2479 21.1016 69.1802 21.4922 69.8781 22.2734C70.576 23.0495 70.925 24.0547 70.925 25.2891V25.5391C70.925 26.7734 70.576 27.7812 69.8781 28.5625C69.1802 29.3438 68.2479 29.7344 67.0812 29.7344C65.9146 29.7344 64.9823 29.3438 64.2844 28.5625C63.5865 27.7812 63.2375 26.7734 63.2375 25.5391ZM64.6906 25.2891V25.5391C64.6906 26.388 64.8911 27.1042 65.2922 27.6875C65.6932 28.2708 66.2896 28.5625 67.0812 28.5625C67.8729 28.5625 68.4667 28.2708 68.8625 27.6875C69.2635 27.1042 69.4641 26.388 69.4641 25.5391V25.2891C69.4641 24.4401 69.2635 23.724 68.8625 23.1406C68.4667 22.5573 67.8729 22.2656 67.0812 22.2656C66.2896 22.2656 65.6932 22.5573 65.2922 23.1406C64.8911 23.724 64.6906 24.4401 64.6906 25.2891ZM72.8797 29.5V21.3281H74.1688L74.2234 22.3828H74.2703C74.4786 22.0391 74.7521 21.7396 75.0906 21.4844C75.4292 21.2292 75.8328 21.1016 76.3016 21.1016C76.4161 21.1016 76.5359 21.1146 76.6609 21.1406C76.7859 21.1615 76.8745 21.1823 76.9266 21.2031V22.5234C76.8224 22.5026 76.713 22.487 76.5984 22.4766C76.4839 22.4661 76.3589 22.4609 76.2234 22.4609C75.7599 22.4609 75.3615 22.5833 75.0281 22.8281C74.7 23.0729 74.4578 23.3802 74.3016 23.75V29.5H72.8797ZM77.6937 22.4219V21.3281H82.3422V22.4219H77.6937ZM79.1547 27.4688V21.9844V21.7578V19.2656H80.5766V27.4688C80.5766 27.8438 80.6495 28.1094 80.7953 28.2656C80.9464 28.4219 81.1781 28.5 81.4906 28.5C81.6365 28.5 81.7771 28.487 81.9125 28.4609C82.0531 28.4297 82.1964 28.388 82.3422 28.3359V29.5C82.2068 29.5625 82.0323 29.6172 81.8187 29.6641C81.6052 29.7109 81.3682 29.7344 81.1078 29.7344C80.5141 29.7344 80.0401 29.5547 79.6859 29.1953C79.3318 28.8307 79.1547 28.2552 79.1547 27.4688ZM83.5312 25.5391V25.2891C83.5312 24.0547 83.8646 23.0495 84.5312 22.2734C85.2031 21.4922 86.1224 21.1016 87.2891 21.1016C88.3776 21.1016 89.2031 21.3932 89.7656 21.9766C90.3281 22.5599 90.6094 23.2188 90.6094 23.9531V23.9922H89.2266V23.9531C89.2266 23.5052 89.0729 23.112 88.7656 22.7734C88.4583 22.4349 87.9688 22.2656 87.2969 22.2656C86.5052 22.2656 85.9219 22.5573 85.5469 23.1406C85.1719 23.7188 84.9844 24.4349 84.9844 25.2891V25.5391C84.9844 26.388 85.1719 27.1042 85.5469 27.6875C85.9219 28.2708 86.5026 28.5625 87.2891 28.5625C87.9661 28.5625 88.4583 28.3932 88.7656 28.0547C89.0729 27.7161 89.2266 27.3229 89.2266 26.875V26.8359H90.6094V26.875C90.6094 27.6042 90.3281 28.263 89.7656 28.8516C89.2031 29.4401 88.3776 29.7344 87.2891 29.7344C86.1224 29.7344 85.2031 29.3438 84.5312 28.5625C83.8646 27.7812 83.5312 26.7734 83.5312 25.5391ZM92.3609 26.6094V21.3281H93.7828V26.625C93.7828 27.2812 93.9286 27.7526 94.2203 28.0391C94.5172 28.3203 94.9365 28.4609 95.4781 28.4609C95.9417 28.4609 96.3479 28.3359 96.6969 28.0859C97.051 27.8307 97.3297 27.5052 97.5328 27.1094V21.3281H98.9547V29.5H97.6656L97.6031 28.4453H97.5641C97.2672 28.8203 96.9052 29.1172 96.4781 29.3359C96.051 29.5495 95.5771 29.6562 95.0563 29.6562C94.2333 29.6562 93.5771 29.4219 93.0875 28.9531C92.6031 28.4844 92.3609 27.7031 92.3609 26.6094ZM100.253 22.4219V21.3281H104.902V22.4219H100.253ZM101.714 27.4688V21.9844V21.7578V19.2656H103.136V27.4688C103.136 27.8438 103.209 28.1094 103.355 28.2656C103.506 28.4219 103.737 28.5 104.05 28.5C104.196 28.5 104.336 28.487 104.472 28.4609C104.612 28.4297 104.756 28.388 104.902 28.3359V29.5C104.766 29.5625 104.592 29.6172 104.378 29.6641C104.165 29.7109 103.928 29.7344 103.667 29.7344C103.073 29.7344 102.599 29.5547 102.245 29.1953C101.891 28.8307 101.714 28.2552 101.714 27.4688ZM106.059 27.0859H107.489V27.1328C107.489 27.6068 107.661 27.9635 108.005 28.2031C108.354 28.4427 108.815 28.5625 109.388 28.5625C109.96 28.5625 110.411 28.4479 110.739 28.2188C111.072 27.9896 111.239 27.6927 111.239 27.3281C111.239 26.9635 111.104 26.6849 110.833 26.4922C110.567 26.2943 109.997 26.0911 109.122 25.8828C108.242 25.6745 107.544 25.3828 107.028 25.0078C106.513 24.6328 106.255 24.1094 106.255 23.4375C106.255 22.7656 106.531 22.2083 107.083 21.7656C107.64 21.3229 108.385 21.1016 109.317 21.1016C110.244 21.1016 110.992 21.3229 111.559 21.7656C112.127 22.2031 112.411 22.7995 112.411 23.5547V23.6016H110.989V23.5312C110.989 23.1354 110.851 22.8255 110.575 22.6016C110.304 22.3776 109.885 22.2656 109.317 22.2656C108.744 22.2656 108.325 22.3698 108.059 22.5781C107.799 22.7865 107.669 23.0469 107.669 23.3594C107.669 23.6719 107.817 23.9219 108.114 24.1094C108.416 24.2917 109.007 24.487 109.888 24.6953C110.768 24.9036 111.445 25.2005 111.919 25.5859C112.398 25.9714 112.638 26.526 112.638 27.25C112.638 27.974 112.367 28.5703 111.825 29.0391C111.283 29.5026 110.471 29.7344 109.388 29.7344C108.304 29.7344 107.479 29.4974 106.911 29.0234C106.343 28.5495 106.059 27.9193 106.059 27.1328V27.0859Z" fill="#FFF2F2"/>
</g>
<g opacity="0.5" clip-path="url(#clip1_102_1735)">
<path d="M187.674 23.9922V23.4766C187.674 22.1602 188.018 21.1348 188.705 20.4004C189.393 19.6621 190.254 19.293 191.289 19.293C192.328 19.293 193.135 19.5723 193.709 20.1309C194.283 20.6895 194.584 21.3633 194.611 22.1523V22.2109H193.463V22.1523C193.447 21.6367 193.262 21.1973 192.906 20.834C192.555 20.4668 192.016 20.2832 191.289 20.2832C190.578 20.2832 189.99 20.5527 189.525 21.0918C189.064 21.627 188.834 22.4219 188.834 23.4766V23.9922C188.834 24.9883 189.064 25.7695 189.525 26.3359C189.986 26.9023 190.574 27.1855 191.289 27.1855C191.988 27.1855 192.512 27.002 192.859 26.6348C193.207 26.2637 193.406 25.8242 193.457 25.3164L193.463 25.2578H194.611L194.605 25.3164C194.527 26.1016 194.215 26.7754 193.668 27.3379C193.121 27.8965 192.328 28.1758 191.289 28.1758C190.254 28.1758 189.393 27.8086 188.705 27.0742C188.018 26.3359 187.674 25.3086 187.674 23.9922ZM195.271 22.6211V21.7656H198.88V22.6211H195.271ZM196.402 26.4531V22.2812V22.1055V20.3125H197.515V26.4531C197.515 26.7266 197.57 26.9219 197.679 27.0391C197.793 27.1562 197.97 27.2148 198.212 27.2148C198.322 27.2148 198.429 27.2031 198.535 27.1797C198.644 27.1562 198.755 27.125 198.869 27.0859V28C198.763 28.0469 198.627 28.0879 198.459 28.123C198.295 28.1582 198.113 28.1758 197.914 28.1758C197.453 28.1758 197.086 28.0371 196.812 27.7598C196.539 27.4824 196.402 27.0469 196.402 26.4531ZM200.191 28V21.7656H201.198L201.245 22.5684H201.28C201.441 22.3066 201.652 22.0781 201.913 21.8828C202.179 21.6875 202.493 21.5898 202.857 21.5898C202.943 21.5898 203.032 21.5996 203.126 21.6191C203.224 21.6387 203.292 21.6562 203.331 21.6719V22.709C203.253 22.6934 203.169 22.6816 203.079 22.6738C202.993 22.666 202.898 22.6621 202.792 22.6621C202.429 22.6621 202.12 22.7559 201.866 22.9434C201.613 23.1309 201.425 23.3613 201.304 23.6348V28H200.191ZM204.571 28V19H205.684V28H204.571Z" fill="#FFF2F2"/>
<rect x="183.5" y="17.5" width="27" height="13" rx="3.5" stroke="#FFF2F2"/>
<path d="M219.305 23.4238V24.4434H213.457V23.4238H219.305ZM216.926 20.9336V27.1445H215.842V20.9336H216.926Z" fill="#FFF2F2"/>
<path d="M226.996 28V19.4688H228.15V23.6875L232.006 19.4688H233.4L228.145 25.1113V28H226.996ZM232.246 28L228.9 23.5762L229.645 22.7734L233.664 28H232.246Z" fill="#FFF2F2"/>
<rect x="222.5" y="17.5" width="15" height="13" rx="3.5" stroke="#FFF2F2"/>
</g>
<defs>
<clipPath id="clip0_102_1735">
<rect width="102" height="24" fill="white" transform="translate(12 12)"/>
</clipPath>
<clipPath id="clip1_102_1735">
<rect width="55" height="14" fill="white" transform="translate(183 17)"/>
</clipPath>
</defs>
</svg>
