<svg width="250" height="48" viewBox="0 0 250 48" fill="none" xmlns="http://www.w3.org/2000/svg">
<g clip-path="url(#clip0_102_1724)">
<path d="M34.2656 21.7781C34.2423 21.6732 34.1968 21.5746 34.1321 21.4889C34.0674 21.4032 33.985 21.3323 33.8906 21.2812L31.6593 20.0437C31.5397 19.8012 31.4051 19.5663 31.2562 19.3406L31.3031 16.7906C31.3039 16.6836 31.2827 16.5776 31.2408 16.4792C31.1989 16.3808 31.1371 16.2922 31.0593 16.2187C29.9484 15.2114 28.6345 14.4538 27.2062 13.9968C27.1036 13.9648 26.9954 13.955 26.8888 13.9679C26.7821 13.9808 26.6794 14.0163 26.5875 14.0718L24.4031 15.3843C24.1312 15.375 23.8687 15.375 23.5968 15.3843L21.4124 14.0718C21.3205 14.0163 21.2178 13.9808 21.1111 13.9679C21.0045 13.955 20.8963 13.9648 20.7937 13.9968C19.3635 14.4541 18.0491 15.2153 16.9406 16.2281C16.8621 16.299 16.7998 16.3859 16.7578 16.4829C16.7157 16.5799 16.6949 16.6849 16.6968 16.7906L16.7437 19.3406C16.5937 19.5656 16.4624 19.8 16.3312 20.0437L14.0999 21.2812C14.0069 21.3329 13.926 21.404 13.8629 21.4898C13.7998 21.5755 13.756 21.6738 13.7343 21.7781C13.4155 23.2422 13.4155 24.7577 13.7343 26.2218C13.7576 26.3267 13.8031 26.4253 13.8678 26.511C13.9325 26.5967 14.0149 26.6676 14.1093 26.7187L16.3406 27.9562C16.4602 28.1987 16.5948 28.4336 16.7437 28.6593L16.6968 31.2093C16.696 31.3163 16.7172 31.4223 16.7591 31.5207C16.801 31.6191 16.8628 31.7078 16.9406 31.7812C18.0515 32.7885 19.3654 33.5461 20.7937 34.0031C20.8963 34.0351 21.0045 34.0449 21.1111 34.032C21.2178 34.0191 21.3205 33.9836 21.4124 33.9281L23.5968 32.6156H24.4031L26.5968 33.9281C26.7109 34.0031 26.8447 34.0422 26.9812 34.0406C27.0574 34.0373 27.133 34.0247 27.2062 34.0031C28.6364 33.5458 29.9508 32.7846 31.0593 31.7718C31.1378 31.7009 31.2001 31.614 31.2421 31.517C31.2842 31.42 31.305 31.3151 31.3031 31.2093L31.2562 28.6593C31.4062 28.4343 31.5375 28.2 31.6687 27.9562L33.9 26.7187C33.993 26.667 34.0739 26.5959 34.137 26.5101C34.2001 26.4244 34.2439 26.3261 34.2656 26.2218C34.5844 24.7577 34.5844 23.2422 34.2656 21.7781ZM24 28.125C23.1841 28.125 22.3866 27.883 21.7082 27.4298C21.0299 26.9765 20.5012 26.3323 20.1889 25.5785C19.8767 24.8248 19.795 23.9954 19.9542 23.1952C20.1134 22.395 20.5062 21.66 21.0831 21.0831C21.66 20.5062 22.395 20.1134 23.1952 19.9542C23.9954 19.795 24.8248 19.8767 25.5785 20.189C26.3323 20.5012 26.9765 21.0299 27.4298 21.7082C27.883 22.3866 28.125 23.1841 28.125 24C28.125 25.094 27.6904 26.1432 26.9168 26.9168C26.1432 27.6904 25.094 28.125 24 28.125Z" fill="#FFF2F2"/>
<path d="M45.3125 29.5V18.125H49.0391C50.2839 18.125 51.237 18.4401 51.8984 19.0703C52.5651 19.6953 52.8984 20.526 52.8984 21.5625C52.8984 22.6042 52.5651 23.4453 51.8984 24.0859C51.237 24.7214 50.2839 25.0391 49.0391 25.0391H46.7891V29.5H45.3125ZM46.7891 23.8203H49.0391C49.9245 23.8203 50.5443 23.6016 50.8984 23.1641C51.2526 22.7266 51.4297 22.1927 51.4297 21.5625C51.4297 20.9375 51.2526 20.4115 50.8984 19.9844C50.5443 19.5521 49.9245 19.3359 49.0391 19.3359H46.7891V23.8203ZM54.5953 29.5V21.3281H55.8844L55.9391 22.3828H55.9859C56.1943 22.0391 56.4677 21.7396 56.8062 21.4844C57.1448 21.2292 57.5484 21.1016 58.0172 21.1016C58.1318 21.1016 58.2516 21.1146 58.3766 21.1406C58.5016 21.1615 58.5901 21.1823 58.6422 21.2031V22.5234C58.538 22.5026 58.4286 22.487 58.3141 22.4766C58.1995 22.4661 58.0745 22.4609 57.9391 22.4609C57.4755 22.4609 57.0771 22.5833 56.7437 22.8281C56.4156 23.0729 56.1734 23.3802 56.0172 23.75V29.5H54.5953ZM59.5188 25.5391V25.2891C59.5188 24.0547 59.8547 23.0495 60.5266 22.2734C61.2036 21.4922 62.0969 21.1016 63.2063 21.1016C64.3156 21.1016 65.1698 21.4661 65.7688 22.1953C66.3677 22.9193 66.6672 23.9036 66.6672 25.1484V25.7344H60.3859V24.5938H65.2297V24.4141C65.2297 23.8203 65.0604 23.3151 64.7219 22.8984C64.3885 22.4766 63.9016 22.2656 63.2609 22.2656C62.4953 22.2656 61.9224 22.5573 61.5422 23.1406C61.162 23.724 60.9719 24.4401 60.9719 25.2891V25.5391C60.9719 26.388 61.1724 27.1042 61.5734 27.6875C61.9745 28.2708 62.5943 28.5625 63.4328 28.5625C63.9536 28.5625 64.399 28.4505 64.7688 28.2266C65.1438 27.9974 65.4484 27.7266 65.6828 27.4141L66.6047 28.1406C66.3443 28.5312 65.9432 28.8958 65.4016 29.2344C64.8651 29.5677 64.2089 29.7344 63.4328 29.7344C62.1672 29.7344 61.1984 29.3438 60.5266 28.5625C59.8547 27.7812 59.5188 26.7734 59.5188 25.5391ZM68.9578 29.5V20.1484C68.9578 19.2422 69.2026 18.5521 69.6922 18.0781C70.1818 17.6042 70.851 17.3672 71.7 17.3672C71.8615 17.3672 72.0281 17.3802 72.2 17.4062C72.3719 17.4271 72.5359 17.4557 72.6922 17.4922L72.6141 18.6484C72.4995 18.6276 72.3771 18.6094 72.2469 18.5938C72.1167 18.5781 71.9839 18.5703 71.8484 18.5703C71.3797 18.5703 71.0177 18.7031 70.7625 18.9688C70.5073 19.2292 70.3797 19.6224 70.3797 20.1484V21.7891V21.9531V29.5H68.9578ZM67.6219 22.4219V21.3281H69.4891H69.8406H72.1531V22.4219H67.6219ZM72.6938 25.5391V25.2891C72.6938 24.0547 73.0297 23.0495 73.7016 22.2734C74.3786 21.4922 75.2719 21.1016 76.3813 21.1016C77.4906 21.1016 78.3448 21.4661 78.9438 22.1953C79.5427 22.9193 79.8422 23.9036 79.8422 25.1484V25.7344H73.5609V24.5938H78.4047V24.4141C78.4047 23.8203 78.2354 23.3151 77.8969 22.8984C77.5635 22.4766 77.0766 22.2656 76.4359 22.2656C75.6703 22.2656 75.0974 22.5573 74.7172 23.1406C74.337 23.724 74.1469 24.4401 74.1469 25.2891V25.5391C74.1469 26.388 74.3474 27.1042 74.7484 27.6875C75.1495 28.2708 75.7693 28.5625 76.6078 28.5625C77.1286 28.5625 77.574 28.4505 77.9438 28.2266C78.3188 27.9974 78.6234 27.7266 78.8578 27.4141L79.7797 28.1406C79.5193 28.5312 79.1182 28.8958 78.5766 29.2344C78.0401 29.5677 77.3839 29.7344 76.6078 29.7344C75.3422 29.7344 74.3734 29.3438 73.7016 28.5625C73.0297 27.7812 72.6938 26.7734 72.6938 25.5391ZM81.7578 29.5V21.3281H83.0469L83.1016 22.3828H83.1484C83.3568 22.0391 83.6302 21.7396 83.9688 21.4844C84.3073 21.2292 84.7109 21.1016 85.1797 21.1016C85.2943 21.1016 85.4141 21.1146 85.5391 21.1406C85.6641 21.1615 85.7526 21.1823 85.8047 21.2031V22.5234C85.7005 22.5026 85.5911 22.487 85.4766 22.4766C85.362 22.4661 85.237 22.4609 85.1016 22.4609C84.638 22.4609 84.2396 22.5833 83.9062 22.8281C83.5781 23.0729 83.3359 23.3802 83.1797 23.75V29.5H81.7578ZM86.6813 25.5391V25.2891C86.6813 24.0547 87.0172 23.0495 87.6891 22.2734C88.3661 21.4922 89.2594 21.1016 90.3688 21.1016C91.4781 21.1016 92.3323 21.4661 92.9313 22.1953C93.5302 22.9193 93.8297 23.9036 93.8297 25.1484V25.7344H87.5484V24.5938H92.3922V24.4141C92.3922 23.8203 92.2229 23.3151 91.8844 22.8984C91.551 22.4766 91.0641 22.2656 90.4234 22.2656C89.6578 22.2656 89.0849 22.5573 88.7047 23.1406C88.3245 23.724 88.1344 24.4401 88.1344 25.2891V25.5391C88.1344 26.388 88.3349 27.1042 88.7359 27.6875C89.137 28.2708 89.7568 28.5625 90.5953 28.5625C91.1161 28.5625 91.5615 28.4505 91.9313 28.2266C92.3063 27.9974 92.6109 27.7266 92.8453 27.4141L93.7672 28.1406C93.5068 28.5312 93.1057 28.8958 92.5641 29.2344C92.0276 29.5677 91.3714 29.7344 90.5953 29.7344C89.3297 29.7344 88.3609 29.3438 87.6891 28.5625C87.0172 27.7812 86.6813 26.7734 86.6813 25.5391ZM95.7453 29.5V21.3281H97.0344L97.0891 22.3828H97.1359C97.4328 22.0078 97.7948 21.7135 98.2219 21.5C98.649 21.2812 99.1229 21.1719 99.6437 21.1719C100.467 21.1719 101.12 21.4062 101.605 21.875C102.094 22.3438 102.339 23.125 102.339 24.2188V29.5H100.917V24.2109C100.917 23.5547 100.769 23.0859 100.472 22.8047C100.18 22.5182 99.7635 22.375 99.2219 22.375C98.7583 22.375 98.3495 22.5 97.9953 22.75C97.6411 23 97.3651 23.3229 97.1672 23.7188V29.5H95.7453ZM104.216 25.5391V25.2891C104.216 24.0547 104.549 23.0495 105.216 22.2734C105.888 21.4922 106.807 21.1016 107.973 21.1016C109.062 21.1016 109.888 21.3932 110.45 21.9766C111.013 22.5599 111.294 23.2188 111.294 23.9531V23.9922H109.911V23.9531C109.911 23.5052 109.757 23.112 109.45 22.7734C109.143 22.4349 108.653 22.2656 107.981 22.2656C107.19 22.2656 106.606 22.5573 106.231 23.1406C105.856 23.7188 105.669 24.4349 105.669 25.2891V25.5391C105.669 26.388 105.856 27.1042 106.231 27.6875C106.606 28.2708 107.187 28.5625 107.973 28.5625C108.651 28.5625 109.143 28.3932 109.45 28.0547C109.757 27.7161 109.911 27.3229 109.911 26.875V26.8359H111.294V26.875C111.294 27.6042 111.013 28.263 110.45 28.8516C109.888 29.4401 109.062 29.7344 107.973 29.7344C106.807 29.7344 105.888 29.3438 105.216 28.5625C104.549 27.7812 104.216 26.7734 104.216 25.5391ZM112.631 25.5391V25.2891C112.631 24.0547 112.967 23.0495 113.639 22.2734C114.316 21.4922 115.209 21.1016 116.319 21.1016C117.428 21.1016 118.282 21.4661 118.881 22.1953C119.48 22.9193 119.78 23.9036 119.78 25.1484V25.7344H113.498V24.5938H118.342V24.4141C118.342 23.8203 118.173 23.3151 117.834 22.8984C117.501 22.4766 117.014 22.2656 116.373 22.2656C115.608 22.2656 115.035 22.5573 114.655 23.1406C114.274 23.724 114.084 24.4401 114.084 25.2891V25.5391C114.084 26.388 114.285 27.1042 114.686 27.6875C115.087 28.2708 115.707 28.5625 116.545 28.5625C117.066 28.5625 117.511 28.4505 117.881 28.2266C118.256 27.9974 118.561 27.7266 118.795 27.4141L119.717 28.1406C119.457 28.5312 119.056 28.8958 118.514 29.2344C117.978 29.5677 117.321 29.7344 116.545 29.7344C115.28 29.7344 114.311 29.3438 113.639 28.5625C112.967 27.7812 112.631 26.7734 112.631 25.5391ZM121.172 27.0859H122.602V27.1328C122.602 27.6068 122.773 27.9635 123.117 28.2031C123.466 28.4427 123.927 28.5625 124.5 28.5625C125.073 28.5625 125.523 28.4479 125.852 28.2188C126.185 27.9896 126.352 27.6927 126.352 27.3281C126.352 26.9635 126.216 26.6849 125.945 26.4922C125.68 26.2943 125.109 26.0911 124.234 25.8828C123.354 25.6745 122.656 25.3828 122.141 25.0078C121.625 24.6328 121.367 24.1094 121.367 23.4375C121.367 22.7656 121.643 22.2083 122.195 21.7656C122.753 21.3229 123.497 21.1016 124.43 21.1016C125.357 21.1016 126.104 21.3229 126.672 21.7656C127.24 22.2031 127.523 22.7995 127.523 23.5547V23.6016H126.102V23.5312C126.102 23.1354 125.964 22.8255 125.688 22.6016C125.417 22.3776 124.997 22.2656 124.43 22.2656C123.857 22.2656 123.438 22.3698 123.172 22.5781C122.911 22.7865 122.781 23.0469 122.781 23.3594C122.781 23.6719 122.93 23.9219 123.227 24.1094C123.529 24.2917 124.12 24.487 125 24.6953C125.88 24.9036 126.557 25.2005 127.031 25.5859C127.51 25.9714 127.75 26.526 127.75 27.25C127.75 27.974 127.479 28.5703 126.938 29.0391C126.396 29.5026 125.583 29.7344 124.5 29.7344C123.417 29.7344 122.591 29.4974 122.023 29.0234C121.456 28.5495 121.172 27.9193 121.172 27.1328V27.0859Z" fill="#FFF2F2"/>
</g>
<g opacity="0.5" clip-path="url(#clip1_102_1724)">
<path d="M187.674 23.9922V23.4766C187.674 22.1602 188.018 21.1348 188.705 20.4004C189.393 19.6621 190.254 19.293 191.289 19.293C192.328 19.293 193.135 19.5723 193.709 20.1309C194.283 20.6895 194.584 21.3633 194.611 22.1523V22.2109H193.463V22.1523C193.447 21.6367 193.262 21.1973 192.906 20.834C192.555 20.4668 192.016 20.2832 191.289 20.2832C190.578 20.2832 189.99 20.5527 189.525 21.0918C189.064 21.627 188.834 22.4219 188.834 23.4766V23.9922C188.834 24.9883 189.064 25.7695 189.525 26.3359C189.986 26.9023 190.574 27.1855 191.289 27.1855C191.988 27.1855 192.512 27.002 192.859 26.6348C193.207 26.2637 193.406 25.8242 193.457 25.3164L193.463 25.2578H194.611L194.605 25.3164C194.527 26.1016 194.215 26.7754 193.668 27.3379C193.121 27.8965 192.328 28.1758 191.289 28.1758C190.254 28.1758 189.393 27.8086 188.705 27.0742C188.018 26.3359 187.674 25.3086 187.674 23.9922ZM195.271 22.6211V21.7656H198.88V22.6211H195.271ZM196.402 26.4531V22.2812V22.1055V20.3125H197.515V26.4531C197.515 26.7266 197.57 26.9219 197.679 27.0391C197.793 27.1562 197.97 27.2148 198.212 27.2148C198.322 27.2148 198.429 27.2031 198.535 27.1797C198.644 27.1562 198.755 27.125 198.869 27.0859V28C198.763 28.0469 198.627 28.0879 198.459 28.123C198.295 28.1582 198.113 28.1758 197.914 28.1758C197.453 28.1758 197.086 28.0371 196.812 27.7598C196.539 27.4824 196.402 27.0469 196.402 26.4531ZM200.191 28V21.7656H201.198L201.245 22.5684H201.28C201.441 22.3066 201.652 22.0781 201.913 21.8828C202.179 21.6875 202.493 21.5898 202.857 21.5898C202.943 21.5898 203.032 21.5996 203.126 21.6191C203.224 21.6387 203.292 21.6562 203.331 21.6719V22.709C203.253 22.6934 203.169 22.6816 203.079 22.6738C202.993 22.666 202.898 22.6621 202.792 22.6621C202.429 22.6621 202.12 22.7559 201.866 22.9434C201.613 23.1309 201.425 23.3613 201.304 23.6348V28H200.191ZM204.571 28V19H205.684V28H204.571Z" fill="#FFF2F2"/>
<rect x="183.5" y="17.5" width="27" height="13" rx="3.5" stroke="#FFF2F2"/>
<path d="M219.305 23.4238V24.4434H213.457V23.4238H219.305ZM216.926 20.9336V27.1445H215.842V20.9336H216.926Z" fill="#FFF2F2"/>
<path d="M226.996 28V19.4688H229.885C230.842 19.4688 231.576 19.7051 232.088 20.1777C232.604 20.6504 232.861 21.2793 232.861 22.0645C232.861 22.8496 232.604 23.4824 232.088 23.9629C231.576 24.4434 230.842 24.6836 229.885 24.6836H228.145V28H226.996ZM228.145 23.7344H229.885C230.561 23.7344 231.033 23.5723 231.303 23.248C231.576 22.9238 231.713 22.5293 231.713 22.0645C231.713 21.5996 231.576 21.209 231.303 20.8926C231.033 20.5762 230.561 20.418 229.885 20.418H228.145V23.7344Z" fill="#FFF2F2"/>
<rect x="222.5" y="17.5" width="15" height="13" rx="3.5" stroke="#FFF2F2"/>
</g>
<defs>
<clipPath id="clip0_102_1724">
<rect width="117" height="24" fill="white" transform="translate(12 12)"/>
</clipPath>
<clipPath id="clip1_102_1724">
<rect width="55" height="14" fill="white" transform="translate(183 17)"/>
</clipPath>
</defs>
</svg>
